<svg xmlns="http://www.w3.org/2000/svg" width="1024" height="1024"><path fill="#29A1DE" d="M0 0h1024v1024H0z"/><path fill="#FDFEFE" d="m390.52 280.877 3.344-.006 3.658.009 3.898-.003q5.354-.002 10.707.007 5.774.005 11.548.002 10.002 0 20.005.008 14.463.011 28.925.012 23.463.004 46.927.019 22.794.014 45.587.02h2.839l14.096.005q58.473.016 116.946.05c.21 8.024.369 16.047.466 24.073.047 3.728.11 7.454.213 11.18.099 3.606.152 7.21.175 10.816q.024 2.05.098 4.1c.269 7.818-.28 12.838-5.319 19.013A309 309 0 0 1 690 355a123 123 0 0 0-3.012 3.941l-1.334 1.8-1.341 1.822a947 947 0 0 1-13.438 17.625l-1.808 2.317-3.483 4.463a2091 2091 0 0 0-15.37 20.009c-6.42 8.444-12.843 16.88-19.417 25.205-5.685 7.2-11.256 14.487-16.82 21.779a2908 2908 0 0 1-18.735 24.292 1695 1695 0 0 0-12.054 15.685 514 514 0 0 1-13.098 16.484c-2.947 3.636-5.721 7.392-8.512 11.148-3.114 4.168-6.316 8.265-9.515 12.368A3569 3569 0 0 0 535 556a4338 4338 0 0 1-18.818 24.335A3674 3674 0 0 0 501 600l-6.26 8.137a8391 8391 0 0 0-8.49 11.05l-1.228 1.6q-3.615 4.699-7.272 9.365l-1.755 2.244q-1.644 2.1-3.295 4.195c-4.431 5.664-8.694 11.45-12.955 17.242l-1.968 2.674L453 663q27.369-.055 54.738-.184c8.472-.04 16.944-.072 25.417-.087q11.079-.019 22.159-.084c3.909-.022 7.818-.038 11.728-.037q5.525 0 11.05-.05c1.989-.012 3.977-.005 5.965.003 7.114-.083 11.912-.684 17.943-4.561 4.243-4.419 3.476-10.432 3.512-16.207l.054-3.274c.054-3.444.088-6.888.122-10.331q.05-3.507.103-7.014c.087-5.725.147-11.449.209-17.174h-46a542 542 0 0 1 20.864-26.114 593 593 0 0 0 8.574-10.323c3.956-4.863 8.026-9.62 12.118-14.37 3.794-4.412 7.495-8.893 11.163-13.412 2.58-3.145 5.207-6.246 7.844-9.343 3.97-4.668 7.838-9.401 11.644-14.204 2.524-3.144 5.147-6.192 7.793-9.234 3.601 1.47 5.344 3.367 7.688 6.438l2.125 2.734L652 519c4.984 6.23 10.121 12.309 15.375 18.313 4.77 5.451 9.308 11.032 13.737 16.762 3.383 4.35 6.98 8.444 10.708 12.503 3.898 4.331 7.521 8.888 11.18 13.422 5.038 6.227 10.117 12.349 15.566 18.223C720 600 720 600 720 602h2v2h-46l.07 20.867q.015 6.563.028 13.125c.012 6.937.026 13.874.053 20.81q.032 8.394.039 16.788.005 3.195.021 6.389c.015 2.994.017 5.987.016 8.981l.022 2.64c-.03 8.866-1.496 16.753-5.561 24.65l-1.739 3.453c-6.891 11.656-17.097 17.086-29.767 20.835-2.567.544-4.92.586-7.547.585l-3.317.006-3.644-.009-3.87.003q-5.324.002-10.646-.007-5.737-.005-11.476-.002-9.943 0-19.886-.008-14.376-.011-28.752-.012a99808 99808 0 0 1-46.647-.019q-22.657-.014-45.316-.02h-2.82l-14.01-.005Q383.125 743.034 325 743c-.328-7.772-.575-15.542-.725-23.319-.073-3.614-.17-7.223-.331-10.834-1.238-28.549-1.238-28.549 9.659-40.484a178 178 0 0 1 3.675-3.643c2.635-2.632 4.759-5.54 6.972-8.532l2.39-3.114c.78-1.014 1.558-2.029 2.36-3.074l6.26-8.137a8391 8391 0 0 0 6.1-7.937q6.404-8.345 12.872-16.641c5.256-6.741 10.459-13.511 15.565-20.367 2.965-3.928 6.01-7.79 9.058-11.653 6.053-7.676 12-15.433 17.907-23.222 6.552-8.634 13.132-17.228 19.945-25.658 4.004-4.975 7.838-10.065 11.649-15.188 5.57-7.473 11.316-14.806 17.051-22.152A1511 1511 0 0 0 472 490.5c5.685-7.403 11.42-14.766 17.155-22.13q4.643-5.964 9.283-11.932l3.308-4.254 1.619-2.083q1.666-2.14 3.334-4.278c4.332-5.555 8.605-11.15 12.864-16.76a2579 2579 0 0 1 19.273-25 2234 2234 0 0 0 10.523-13.637c3.857-5.014 7.752-9.999 11.645-14.985l1.7-2.18 1.488-1.907a695 695 0 0 0 4.921-6.501l1.638-2.186L572 361q-28.008.054-56.015.184c-8.67.04-17.34.072-26.009.087q-11.336.019-22.67.084c-4.002.022-8.002.038-12.003.037q-5.651 0-11.303.05-2.07.012-4.143.004c-9.784-.22-9.784-.22-17.857 4.554-4.15 4.614-3.476 10.333-3.512 16.207l-.054 3.274c-.054 3.444-.088 6.888-.121 10.332q-.05 3.506-.104 7.013c-.087 5.725-.147 11.449-.209 17.174h47l-6 7a727 727 0 0 0-4.062 4.938l-2.325 2.847q-2.853 3.508-5.695 7.024c-5.61 6.93-11.255 13.822-17.037 20.61a564 564 0 0 0-8.318 10.019c-3.474 4.27-7.031 8.457-10.625 12.625-3.386 3.925-6.724 7.868-9.938 11.937a765 765 0 0 1-10.25 12.625l-1.54 1.906c-1.476 1.758-1.476 1.758-4.21 4.469-4 0-4 0-6.078-1.836l-2.172-2.539c-.795-.924-1.59-1.849-2.41-2.8a536 536 0 0 1-7.988-9.872c-7.681-9.646-15.599-19.105-23.592-28.494a347 347 0 0 1-7.697-9.396c-3.238-4.087-6.597-8.053-10-12A732 732 0 0 1 310 431l-2.332-2.867-2.23-2.758-2.004-2.477C302 421 302 421 302 420h46l-.14-21.672q-.032-6.822-.055-13.644c-.024-7.21-.052-14.418-.107-21.627a3044 3044 0 0 1-.078-17.448q-.01-3.318-.043-6.635c-.168-17.9 1.426-32.25 13.923-46.161 7.785-7.409 18.306-11.94 29.02-11.936"/><path fill="#FDFEFD" d="M0 0h184v1l-1.746.18C161.424 3.41 141.32 7.77 122 16c-.666.28-1.333.56-2.019.85C98.289 26.118 78.987 39.733 62 56l-1.68 1.582c-23.964 22.624-41.073 50.95-50.7 82.42a216 216 0 0 1-1.768 5.38C3.249 159.19 1.619 173.52 1 188H0z"/><path fill="#FDFEFE" d="M836 0h188v181h-1l-.191-2.516c-5.083-51.149-31.355-99.587-71.016-132.129C918.903 19.758 878.663 2.311 836 1z"/><path fill="#FCFDFD" d="M0 841h1l.332 3.629c4.842 50.724 27.403 99.376 67.113 132.281 2.899 2.337 5.858 4.587 8.846 6.808a229 229 0 0 1 4.756 3.696c15.657 11.957 35.06 21.952 53.953 27.586l2.183.665c14.363 4.263 28.938 5.925 43.817 7.335v1H0z"/><path fill="#FCFEFD" d="M1023 843h1v181H848v-1l1.978-.272c51.931-7.303 100.472-31.947 133.075-73.96 5.457-7.292 10.444-14.85 14.947-22.768l1.163-1.991c14.377-24.81 21.91-52.474 23.837-81.009"/><path fill="#3A80A9" d="m399.604 278.76 3.922-.006c3.549-.004 7.097.004 10.645.014 3.843.009 7.686.006 11.53.004q9.965-.001 19.93.017c9.606.016 19.212.021 28.817.024q23.382.007 46.763.036a69445 69445 0 0 0 62.295.05q58.248.032 116.494.101l.076 2.842q.144 5.25.296 10.5.065 2.267.125 4.533.089 3.27.187 6.54l.11 3.966c.187 3.285.619 6.387 1.206 9.619.206 3.811.185 7.621.187 11.437l.038 3.065c.019 9.657-1.392 16.57-8.416 23.732a362 362 0 0 1-4.786 4.618c-1.906 2.024-2.95 3.612-4.023 6.148-2.293 5.16-5.267 8.853-9 13a782 782 0 0 0-3.25 3.75c-.48.552-.96 1.103-1.453 1.672-1.926 2.343-3.228 4.028-3.61 7.078-.687 2.5-.687 2.5-3.062 4.125L662 397c-1.815 1.396-1.815 1.396-3 3v3l-4 1v4h-2v2l-4 4c-4.185 4.515-4.185 4.515-6 10l-1.816.734c-2.611 1.514-3.551 2.958-5.122 5.516-1.772 2.79-3.528 5.433-5.687 7.937-2.402 2.723-2.402 2.723-4.188 5.625-2.497 3.64-5.355 6.738-8.382 9.942-1.887 2.348-2.71 4.464-3.805 7.246-1.473 1.625-1.473 1.625-3.063 3-2.773 2.593-3.31 4.238-3.937 8q-1.988 1.026-4 2l-.938 2.437C601 479 601 479 598.758 480.254c-3.454 2.187-5.566 5-7.946 8.246l-1.326 1.762c-3.854 5.034-3.854 5.034-6.486 10.738a89 89 0 0 1-3.625 4.187l-2.168 2.399q-2.125 2.325-4.258 4.64l-1.887 2.086-1.714 1.864c-1.469 1.74-1.469 1.74-1.848 3.883-.886 3.44-3.762 4.844-6.5 6.941l1 3-2.125 1c-3.155 2.195-4.734 4.32-6.93 7.418-3.022 4.011-6.373 7.739-9.719 11.482-3.08 3.514-5.224 6.837-7.226 11.1-1.352 1.793-1.352 1.793-2.625 3.187-2.521 2.634-2.521 2.634-3.375 5.813l-2.313 1.812c-2.986 2.431-4.625 4.958-6.687 8.188l-1.75 1.687c-1.595 1.373-1.595 1.373-1.25 4.313a493 493 0 0 1-4.09 3.223c-3.423 3.185-5.984 7.067-8.726 10.836a94 94 0 0 1-5.622 6.878c-2.625 2.773-2.625 2.773-3.437 5.563-1.596 3.546-4.299 5.318-7.348 7.656-2.18 2.263-2.383 3.772-2.777 6.844l-1 3h-4c-1.821 1.889-2.857 3.285-3.375 5.875-1.34 4.554-5.128 7.816-8.75 10.687-2.844 2.412-4.166 4.176-5.875 7.438a776 776 0 0 1-2.188 3.812L459 661l2-1c3.202-.059 6.388-.02 9.59.04 3.83.124 3.83.124 7.41-1.04a76 76 0 0 1 4.63-.13l2.914-.009 3.16.006 3.243-.003q3.405 0 6.81.006c3.465.005 6.93 0 10.395-.007q3.308 0 6.614.004l3.135-.006c4.833.016 9.335.242 14.099 1.139 2.226.05 2.226.05 4.371-.121l2.455-.147 2.611-.17c13.719-.766 27.689-1.411 41.375.063 5.338.572 10.027-.243 15.188-1.625l-.188-3.313C599 651 599 651 600.48 649.563c2.036-2.094 1.941-3.368 2.032-6.254l.107-2.87.068-3.002.104-2.826c.3-9.2.238-18.407.209-27.611l-3.716.048c-4.545.054-9.09.088-13.636.117q-2.953.022-5.905.061c-2.827.037-5.654.054-8.481.067l-2.671.047h-2.487l-2.187.02C562 607 562 607 559 604h47c.092 6.87.172 13.736.22 20.605q.03 3.504.082 7.007c.048 3.361.071 6.722.089 10.083l.062 3.154c.002 5.84-.181 9.762-4.453 14.151-7.163 4.64-13.472 4.548-21.852 4.454q-2.085-.001-4.17.002c-3.754.001-7.508-.022-11.261-.05-3.93-.026-7.861-.028-11.791-.033-7.434-.012-14.868-.045-22.301-.085-8.467-.045-16.934-.067-25.4-.087-17.409-.041-34.817-.112-52.225-.201 1.313-2.68 2.667-5.052 4.469-7.434l1.465-1.946 1.566-2.058 1.625-2.15a2075 2075 0 0 1 12.46-16.287c2.395-3.1 4.78-6.206 7.165-9.313 6.985-9.087 14.04-18.121 21.082-27.165A5132 5132 0 0 0 525 568l5.187-6.75 1.275-1.657c2.894-3.762 5.804-7.51 8.722-11.253 2.556-3.293 5.092-6.601 7.63-9.908 3.125-4.065 6.272-8.113 9.425-12.156 4.53-5.808 9.048-11.62 13.448-17.526 4.011-5.382 8.145-10.657 12.301-15.926 8.54-10.829 16.967-21.743 25.328-32.71 3.798-4.974 7.649-9.903 11.527-14.815 4.09-5.19 8.098-10.438 12.104-15.693 4.05-5.308 8.136-10.589 12.24-15.856a2897 2897 0 0 0 20.493-26.586c7.659-10.07 15.353-20.111 23.136-30.086l1.464-1.927C691 353 691 353 692.81 351.148c6.18-6.702 6.191-13.039 6.092-21.808q.014-2.1.038-4.199c.032-3.655.022-7.308.004-10.963-.011-3.741.017-7.482.042-11.223.043-7.319.043-14.636.014-21.955a129924 129924 0 0 0-133.606.262l-2.838.007q-22.735.051-45.471.081-23.334.033-46.668.099-14.394.04-28.79.05-9.874.01-19.75.047c-3.796.014-7.592.023-11.39.019-4.12-.004-8.242.015-12.364.036l-3.614-.014c-12.86.109-23.477 3.821-33.197 12.413-8.957 9.51-12.601 22.358-12.63 35.066l-.031 2.988c-.031 3.241-.048 6.482-.065 9.723q-.028 3.383-.059 6.764c-.051 5.92-.09 11.84-.128 17.76-.047 7.11-.109 14.22-.168 21.33-.088 10.79-.158 21.58-.231 32.369l-45 1c7.417 9.075 7.417 9.075 15 18a673 673 0 0 1 12.723 15.223 686 686 0 0 0 7.777 9.277c4.906 5.775 9.719 11.621 14.5 17.5a7239 7239 0 0 0 16.187 19.75l1.765 2.149A738 738 0 0 0 382 516c3.93-1.794 6.187-4.256 8.875-7.563l1.428-1.72Q394.66 503.865 397 501q2.58-3.14 5.163-6.28 1.787-2.172 3.573-4.35A721 721 0 0 1 417 477c6.805-7.886 13.398-15.944 20-24 6.72-8.191 13.443-16.38 20.25-24.5l1.376-1.655c3.142-3.729 3.142-3.729 5.374-4.845-1.24 4.546-2.662 6.763-6 10-2.262 3.783-2.262 3.783-3 8a132 132 0 0 1-5 3c-2.151 1.749-2.151 1.749-2.25 3.812-.981 2.862-2.811 3.964-5.14 5.778-2.21 1.936-3.693 4.17-5.333 6.59-2.678 3.817-5.862 7.26-8.992 10.71l-1.66 1.86-1.523 1.672c-1.388 1.667-1.388 1.667-1.102 4.578l-2.375 1.375c-2.815 1.383-2.815 1.383-3.625 4.125-1.3 3.25-3.021 3.82-6 5.5l-1 3c-1.488 1.395-1.488 1.395-3.313 2.812-2.348 1.937-3.8 3.36-5.5 5.938-3.395 5.045-7.84 9.024-12.187 13.25l-2.66 2.8c-2.34 2.2-2.34 2.2-4.84 2.325-3.27-1.471-5.185-3.414-7.5-6.125v-2h-2a110 110 0 0 1-3.875-5.75c-2.457-3.867-4.889-7.028-8.125-10.25v-2l-3 1-1-3-2-2c-2-2-2-2-3-4l-3-1c-1.395-2.328-1.395-2.328-2.813-5.25-2.554-4.92-4.823-7.453-9.187-10.75a156 156 0 0 1-3-5h-2l-1-5h-2v-2h-2c-1.402-1.645-1.402-1.645-2.938-3.813-1.486-2.086-2.867-3.998-4.71-5.78-1.87-1.946-1.998-3.787-2.352-6.407h-6l-.688-3.188c-1.129-4.009-3.26-5.984-6.312-8.812-2.601-3.588-3.138-5.63-3-10l3.301-.076q6.089-.143 12.178-.296 2.63-.065 5.26-.125 3.79-.088 7.581-.187l2.359-.05c4.197-.113 8.186-.458 12.321-1.266q.252-3.875.5-7.75l.145-2.21c.354-5.567.352-11.095.323-16.67q-.048-10.084-.072-20.17-.014-6.093-.047-12.185-.032-5.91-.039-11.821-.005-2.24-.021-4.48c-.057-8.111.144-15.824 2.211-23.714.235-.951.47-1.903.71-2.883 1.598-5.393 3.705-10.125 6.29-15.117v-2h2l.625-2.2c1.746-3.556 4.222-5.378 7.375-7.613l1.656-1.232C369.71 283 369.71 283 372 283v-2c9.267-1.538 18.217-2.287 27.604-2.24M688 361l3 3-3 1-1-3z"/><path fill="#6596B9" d="m475 484 2 1-1.047 1.335c-6.975 8.902-13.877 17.851-20.64 26.915a939 939 0 0 1-21.235 27.379 787 787 0 0 0-18.207 23.527c-5.51 7.394-11.157 14.682-16.873 21.918A765 765 0 0 0 386 603a757 757 0 0 1-12.994 16.92q-4.574 5.79-9.068 11.643l-1.248 1.625L359 638a2822 2822 0 0 1-13.426 17.398l-1.823 2.34a3944 3944 0 0 1-3.49 4.468 372 372 0 0 0-3.28 4.266 106 106 0 0 1-4.262 5.09c-6.59 7.794-8.011 13.934-7.817 24.172a734 734 0 0 1-.028 4.12c-.025 3.57.004 7.14.044 10.71.032 3.662.013 7.322-.002 10.983-.022 7.151.013 14.302.084 21.453a95811 95811 0 0 0 132.587-.208l2.817-.005c15.039-.031 30.077-.048 45.116-.06q23.16-.02 46.319-.082 14.281-.038 28.564-.036 9.802-.001 19.606-.041c3.767-.015 7.534-.023 11.3-.014 4.095.01 8.189-.011 12.283-.035l3.564.023c13.504-.138 24.337-4.083 34.532-12.855 10.028-11.654 13.418-23.208 13.517-38.386l.03-2.87q.047-4.667.081-9.333l.063-6.495q.082-8.524.153-17.05c.06-6.826.126-13.652.19-20.48.098-10.357.187-20.715.278-31.073h46v-2h-2c-1.354-1.487-2.631-3.044-3.875-4.625A455 455 0 0 0 705 584c-3.76-4.37-7.503-8.753-11.187-13.187l-2.168-2.606C690 566 690 566 689 563h3c1.43 1.863 1.43 1.863 2.875 4.313 2.324 3.706 4.15 5.699 8.125 7.687v2h2v4l4 2v2h2v4h2v2l1.75.688c4.35 2.537 6.896 6.958 9.25 11.312v2c-4.318 2.126-7.853 2.18-12.625 2.063-5.285-.181-5.285-.181-10.375.937q-2.5-.495-5-1c-2.761-.093-5.49-.14-8.25-.125l-2.219-.012c-3.56-.321-3.56-.321-6.531 1.137-.1 2.238-.13 4.479-.133 6.719l-.004 2.078q0 3.352.012 6.703l.002 2.281c.008 9.788.176 19.511 1.002 29.27.121 2.949.121 2.949-.366 4.88-.53 2.138-.621 3.93-.595 6.128l.02 2.389.035 2.56.037 5.43q.035 4.254.086 8.51c.03 2.75.048 5.498.064 8.247l.04 2.524c.026 5.981-.878 11.46-2.2 17.281l-.515 2.669c-2.124 10.208-12.804 18.42-20.919 24.104-1.711 1.16-1.711 1.16-2.566 3.227-2.11.344-2.11.344-4.75.5-2.825.17-4.939.363-7.54 1.508-3.087 1.13-5.425 1.227-8.706 1.203l-3.59-.01-3.851-.04-6.018-.024c-2.804-.013-5.607-.036-8.41-.058q-7.36-.056-14.72-.088-3.915-.018-7.829-.053l-3.59-.02-3.15-.025c-2.84.026-2.84.026-5.533.675C573 747 573 747 570 746h-3l-4.164-.016q-6.948-.026-13.897-.039-3.005-.008-6.009-.02a3258 3258 0 0 0-8.653-.023l-2.724-.015h-2.518l-2.22-.007c-1.916.01-1.916.01-3.815 1.12v-2l-1.667.496c-2.627.568-4.97.6-7.657.567l-3.12-.024-6.429-.078c-4.831-.036-9.535.009-14.334.601L486 747l-1-1c-3.056-.101-6.088-.14-9.145-.133l-2.791-.003q-2.933 0-5.864.006c-2.99.005-5.978 0-8.968-.007q-2.844 0-5.689.004l-2.712-.006-2.537.01-2.225.002c-2.086.054-2.086.054-4.087.698-2.354.51-3.685.078-5.982-.571a69 69 0 0 0-4.262-.114h-2.518l-2.693.016-2.786.005c-2.934.005-5.869.018-8.803.03q-2.97.008-5.94.014-6.535.015-13.07.042c-65.677.23-65.677.23-71.928-1.993l-.437-2.875c-.392-3.018-.392-3.018-1.563-5.125h2l-2-5 1-1c.101-2.704.14-5.382.133-8.086l.003-2.463q0-2.584-.006-5.17-.005-3.957.007-7.914 0-2.508-.004-5.015l.006-2.397c-.014-3.244-.106-5.855-1.139-8.955 1.175-12.648 1.175-12.648 4.691-17.18 1.872-1.508 1.872-1.508 3.688-2.644 2.013-1.46 2.614-2.933 3.621-5.176q1.47-1.53 3-3l1.563-2.187L339 658h2l-.437-2.125c.608-3.997 2.67-5.1 5.808-7.445 1.91-1.435 1.91-1.435 2.629-4.43q1.47-1.53 3-3l1-2h2l.563-2c1.758-3.669 4.16-6.132 6.976-9.035 1.859-2.092 1.859-2.092 1.461-5.965h4l.777-1.715c1.811-3.384 4.253-6.191 6.664-9.164 1.732-2.13 1.732-2.13 2.559-5.121h2l1-3h2l.313-1.937L384 599l3-1 1-6h3l1-4h2v-4c1.426-1.527 1.426-1.527 3.313-2.937 3.044-2.413 4.78-4.65 6.687-8.063h2l1-3h2v-8l3.375-.625L416 560c1.209-2.791 1.209-2.791 2-6 1.5-2.256 3.116-4.021 5-6h2l.75-1.687C427 544 427 544 429.063 541.438c2.1-2.358 2.1-2.358 2.937-5.438h2v-3h3l1-3h3l.813-3.312c1.552-4.822 1.552-4.822 4.187-6.688h2l2-6h2v-2l3-2q.544-1.99 1-4l2-1 1-3h2l.688-2.187c1.575-3.377 3.52-5.37 6.312-7.813h2v-3c2.5-2.687 2.5-2.687 5-5"/><path fill="#3587A9" d="m399.604 278.76 3.922-.006c3.549-.004 7.097.004 10.645.014 3.843.009 7.686.006 11.53.004q9.965-.001 19.93.017c9.606.016 19.212.021 28.817.024q23.382.007 46.763.036a69445 69445 0 0 0 62.295.05q58.248.032 116.494.101v2l-2.008.003a129927 129927 0 0 0-132.025.26l-2.847.006q-22.809.051-45.617.081-23.408.033-46.817.099-14.44.04-28.882.05-9.906.01-19.812.047c-3.81.014-7.618.023-11.427.019-4.135-.004-8.269.015-12.404.036l-3.626-.014c-12.872.109-23.492 3.812-33.223 12.413-8.957 9.51-12.601 22.358-12.63 35.066l-.031 2.988c-.031 3.241-.048 6.482-.065 9.723q-.028 3.383-.059 6.764c-.051 5.92-.09 11.84-.128 17.76-.047 7.11-.109 14.22-.168 21.33-.088 10.79-.158 21.58-.231 32.369l-45 1c7.417 9.075 7.417 9.075 15 18a673 673 0 0 1 12.723 15.223 686 686 0 0 0 7.777 9.277c4.906 5.775 9.719 11.621 14.5 17.5a7239 7239 0 0 0 16.187 19.75l1.765 2.149A738 738 0 0 0 382 516c3.93-1.794 6.187-4.256 8.875-7.563l1.428-1.72Q394.66 503.865 397 501q2.58-3.14 5.163-6.28 1.787-2.172 3.573-4.35A721 721 0 0 1 417 477c6.805-7.886 13.398-15.944 20-24 6.72-8.191 13.443-16.38 20.25-24.5l1.376-1.655c3.142-3.729 3.142-3.729 5.374-4.845-1.24 4.546-2.662 6.763-6 10-2.262 3.783-2.262 3.783-3 8a132 132 0 0 1-5 3c-2.151 1.749-2.151 1.749-2.25 3.812-.981 2.862-2.811 3.964-5.14 5.778-2.21 1.936-3.693 4.17-5.333 6.59-2.678 3.817-5.862 7.26-8.992 10.71l-1.66 1.86-1.523 1.672c-1.388 1.667-1.388 1.667-1.102 4.578l-2.375 1.375c-2.815 1.383-2.815 1.383-3.625 4.125-1.3 3.25-3.021 3.82-6 5.5l-1 3c-1.488 1.395-1.488 1.395-3.313 2.812-2.348 1.937-3.8 3.36-5.5 5.938-3.395 5.045-7.84 9.024-12.187 13.25l-2.66 2.8c-2.34 2.2-2.34 2.2-4.84 2.325-3.27-1.471-5.185-3.414-7.5-6.125v-2h-2a110 110 0 0 1-3.875-5.75c-2.457-3.867-4.889-7.028-8.125-10.25v-2l-3 1-1-3-2-2c-2-2-2-2-3-4l-3-1c-1.395-2.328-1.395-2.328-2.813-5.25-2.554-4.92-4.823-7.453-9.187-10.75a156 156 0 0 1-3-5h-2l-1-5h-2v-2h-2c-1.402-1.645-1.402-1.645-2.938-3.813-1.486-2.086-2.867-3.998-4.71-5.78-1.87-1.946-1.998-3.787-2.352-6.407h-6l-.688-3.188c-1.129-4.009-3.26-5.984-6.312-8.812-2.601-3.588-3.138-5.63-3-10l3.301-.076q6.089-.143 12.178-.296 2.63-.065 5.26-.125 3.79-.088 7.581-.187l2.359-.05c4.197-.113 8.186-.458 12.321-1.266q.252-3.875.5-7.75l.145-2.21c.354-5.567.352-11.095.323-16.67q-.048-10.084-.072-20.17-.014-6.093-.047-12.185-.032-5.91-.039-11.821-.005-2.24-.021-4.48c-.057-8.111.144-15.824 2.211-23.714.235-.951.47-1.903.71-2.883 1.598-5.393 3.705-10.125 6.29-15.117v-2h2l.625-2.2c1.746-3.556 4.222-5.378 7.375-7.613l1.656-1.232C369.71 283 369.71 283 372 283v-2c9.267-1.538 18.217-2.287 27.604-2.24"/><path fill="#3285C3" d="M689 563h3c1.43 1.863 1.43 1.863 2.875 4.313 2.324 3.706 4.15 5.699 8.125 7.687v2h2v4l4 2v2h2v4h2v2l1.75.688c4.35 2.537 6.896 6.958 9.25 11.312v2c-4.318 2.126-7.853 2.18-12.625 2.063-5.285-.181-5.285-.181-10.375.937q-2.5-.495-5-1c-2.761-.093-5.49-.14-8.25-.125l-2.219-.012c-3.56-.321-3.56-.321-6.531 1.137-.1 2.238-.13 4.479-.133 6.719l-.004 2.078q0 3.352.012 6.703l.002 2.281c.008 9.788.176 19.511 1.002 29.27.121 2.949.121 2.949-.366 4.88-.53 2.138-.621 3.93-.595 6.128l.02 2.389.035 2.56.037 5.43q.035 4.254.086 8.51c.03 2.75.048 5.498.064 8.247l.04 2.524c.026 5.981-.878 11.46-2.2 17.281l-.515 2.669c-2.124 10.208-12.804 18.42-20.919 24.104-1.711 1.16-1.711 1.16-2.566 3.227-2.11.344-2.11.344-4.75.5-2.825.17-4.939.363-7.54 1.508-3.087 1.13-5.425 1.227-8.706 1.203l-3.59-.01-3.851-.04-6.018-.024c-2.804-.013-5.607-.036-8.41-.058q-7.36-.056-14.72-.088-3.915-.018-7.829-.053l-3.59-.02-3.15-.025c-2.84.026-2.84.026-5.533.675C573 747 573 747 570 746h-3l-4.164-.016q-6.948-.026-13.897-.039-3.005-.008-6.009-.02a3258 3258 0 0 0-8.653-.023l-2.724-.015h-2.518l-2.22-.007c-1.916.01-1.916.01-3.815 1.12v-2l-1.667.496c-2.627.568-4.97.6-7.657.567l-3.12-.024-6.429-.078c-4.831-.036-9.535.009-14.334.601L486 747l-1-1c-3.056-.101-6.088-.14-9.145-.133l-2.791-.003q-2.933 0-5.864.006c-2.99.005-5.978 0-8.968-.007q-2.844 0-5.689.004l-2.712-.006-2.537.01-2.225.002c-2.086.054-2.086.054-4.087.698-2.354.51-3.685.078-5.982-.571a69 69 0 0 0-4.262-.114h-2.518l-2.693.016-2.786.005c-2.934.005-5.869.018-8.803.03q-2.97.008-5.94.014-6.535.015-13.07.042c-65.898.23-65.898.23-69.928-1.993h1.963a74404 74404 0 0 0 129.177-.153l2.788-.005c14.872-.026 29.743-.035 44.615-.038q22.91-.005 45.82-.065 14.124-.036 28.247-.023 9.7.008 19.4-.035c3.725-.015 7.45-.022 11.174-.008 20.223.073 37.493-.209 53.504-13.986 10.028-11.654 13.418-23.208 13.517-38.386l.03-2.87q.047-4.667.081-9.333l.063-6.495q.082-8.524.153-17.05c.06-6.826.126-13.652.19-20.48.098-10.357.187-20.715.278-31.073h46v-2h-2c-1.354-1.487-2.631-3.044-3.875-4.625A455 455 0 0 0 705 584c-3.76-4.37-7.503-8.753-11.187-13.187l-2.168-2.606C690 566 690 566 689 563"/><path fill="#30BBCA" d="M191 0c-2.672 2.672-5.125 3.093-8.75 4.125l-3.672 1.07c-3.356.755-6.161.873-9.578.805l-3.5 1c-3.5 1-3.5 1-6.375.938-3.62.072-6.316.995-9.7 2.207-2.476.873-4.966 1.623-7.488 2.355-3.762 1.112-7.407 2.394-11.062 3.816-1.82.664-3.693 1.177-5.562 1.684-3.213.97-5.495 2.22-8.313 4l-2.437.938c-2.768 1.05-2.768 1.05-5.75 3.187C106 28 106 28 104 28l-1 2-3.25.75c-3.673 1.224-4.27 1.483-6.437 4.313C90.873 38.162 90.558 38.31 87 39a181 181 0 0 0-4 4l-2.14 1.18c-4.016 2.556-7.25 5.78-10.672 9.07-4.703 4.491-9.438 8.901-14.384 13.125-5.944 5.354-10.453 11.805-14.91 18.402C39 87 39 87 36.888 87.504L35 88c-1.2 2.246-1.2 2.246-2 5-2.503 6.367-5.035 12.298-8.809 18.012-3.502 5.845-5.48 12.598-7.48 19.078C16 132 16 132 14 135a147 147 0 0 0-1.43 4.895c-.668 2.465-1.397 4.909-2.133 7.355l-.753 2.516A221 221 0 0 1 8 155v3.063C8 161 8 161 7 163c-.18 1.559-.32 3.123-.437 4.688-.287 3.247-.712 6.2-1.688 9.312-1.212 2.892-1.212 2.892.125 5a94 94 0 0 1-1.937 6.125l-1.153 3.32L1 194H0c.842-29.428 6.848-56.449 20-83l.936-1.937C34.52 81.13 57.43 54.533 83 37l1.943-1.34c9.36-6.411 18.945-11.928 29.201-16.769 1.964-.943 3.898-1.935 5.836-2.93C140.955 5.455 167.604-.613 191 0"/><path fill="#4B82CF" d="M0 835c2.012 3.018 2.432 4.512 3 8l.5 2.945L4 849q.49 2.94 1 5.875l.438 2.617c.498 2.563.498 2.563 1.628 5.067.963 2.516 1.065 3.978.872 6.629C7.776 875.616 9.435 881.652 13 887h2l-.59 2.105c-.491 3.468.103 5.842 1.027 9.207l.872 3.239L17 904h2l1 6h3l1 10h2l3 5h2l.625 3.313c1.032 3.916 1.032 3.916 4.5 5.625.949.35 1.898.7 2.875 1.062l-.875 2c-.177 4.252 1.79 6.16 4.332 9.426L44 948h2l1.25 2.938L49 954l2.063.5L53 955l.938 2.938L55 961q2.479 1.054 5 2c1.188 2.563 1.188 2.563 2 5l2 1v2h4l2 4h3l1 4 3-1v4c2.332 1.206 4.496 2.165 7 3v2l1.688.25c2.997.972 4.864 2.791 7.312 4.75 2.182.778 2.182.778 4 1v2l5-1v3c3.506 2.681 6.658 3.495 11 4v2h2v2q2.686.754 5.375 1.5l3.023.844c2.478.738 2.478.738 4.602.656 1.625 1.5 1.625 1.5 3 3v-2c2.867.573 3.861.861 6 3 2.069.643 2.069.643 4 1v2a282 282 0 0 0 28 1v5l2.45-.07 3.238-.055 3.199-.07c3.136.196 5.29.864 8.113 2.195-24.067 7.577-60.905-10.101-81.875-20.875C95.177 997.419 86.95 992.231 79 986l-2.645-2.012c-6.277-4.873-12.146-10.188-17.922-15.638a491 491 0 0 0-3.96-3.678C30.419 941.749 14.932 910.598 6 879l-1.023-3.594C1.434 862.076.55 848.715 0 835m6 30 1 2Z"/><path fill="#EAFFFE" d="m397.883 280.76 3.906-.006c3.562-.004 7.124.004 10.686.014 3.847.009 7.694.006 11.542.004q9.99-.001 19.98.017c9.63.016 19.26.021 28.889.024q23.436.007 46.873.036a70005 70005 0 0 0 62.445.05q58.398.032 116.796.101c.21 8.024.369 16.047.466 24.073.047 3.728.11 7.454.213 11.18.099 3.606.152 7.21.175 10.816q.024 2.05.098 4.1c.269 7.828-.285 12.844-5.329 19.028A281 281 0 0 1 690 355a108 108 0 0 0-2.848 3.7 5440 5440 0 0 1-4.5 6.062L681 367c-1-3-1-3 .437-6.188L683 358h2l.687-1.625c1.769-3.2 3.85-5.665 6.313-8.375h2v-3h2l1-61a412260 412260 0 0 0-133.136-.055h-2.825q-22.665-.008-45.33-.022-23.245-.014-46.488-.017-14.352-.002-28.703-.014-9.831-.007-19.662-.006-5.68.002-11.357-.005-6.147-.007-12.294-.001l-3.652-.01-3.311.007-2.869-.001c-2.524.026-2.524.026-5.373 1.124-2.333.04-4.667.044-7 0 5.568-5.568 15.61-4.276 22.883-4.24"/><path fill="#4D82D0" d="M1022 845h1c1.404 36.387-16.38 73.73-38 102l-2.086 2.82C967.872 969.262 948.477 986.066 927 998l-2.344 1.305c-11.24 6.194-22.436 11.74-34.656 15.695l-2.06.678c-15.534 5.049-30.572 7.965-46.94 7.322v-1l16-3v-2a196 196 0 0 1 13.938-1.375c4.745-.366 8.794-1.28 13.222-3.004C886 1012 886 1012 889 1012l-1-3 2.781-.262c6.596-.755 11.757-1.407 17.14-5.375 3.561-2.335 7.57-3.655 11.54-5.152 2.821-1.08 2.821-1.08 4.539-4.211 3.625-.687 3.625-.687 7-1v-2q2.124-1.189 4.25-2.375l2.39-1.336A163 163 0 0 1 944 984v-2c2.41-2.755 4.256-4.706 7.688-6.062 2.471-.706 2.471-.706 3.312-2.938 1-2 1-2 3.375-2.937 3.344-1.354 4.458-3.22 6.625-6.063l2.688-2.062c2.563-2.148 2.594-2.86 3.312-5.938l1.836-.836c2.72-1.463 3.63-3.043 5.226-5.664 1.892-3.09 2.853-4.444 5.938-6.5a88 88 0 0 0 3-5c1.549-2.664 2.819-4.819 5-7l1-3.062c1-2.938 1-2.938 3-3.938 3.16-4.787 4.535-8.302 5-14h3c2.183-4.98 4.081-9.747 5-15.125.566-3.276 1.3-5.651 3-8.5 3.384-6.086 3.372-13.569 4-20.375h2c1.042-4.615 1.042-4.615 0-9h2l.184-2.371.254-3.067.246-3.058C1021 846 1021 846 1022 845"/><path fill="#4D97A8" d="m433.948 360.76 3.688-.009 4.037.022h4.258c3.85-.002 7.701.01 11.552.024 4.026.013 8.05.014 12.076.016 7.621.006 15.243.023 22.864.043 8.677.022 17.354.033 26.031.043q26.773.032 53.546.101c-1.376 2.823-2.821 5.225-4.766 7.695l-1.675 2.14-1.809 2.29-3.828 4.883-1.979 2.516C554.95 384.34 551.975 388.17 549 392a8167 8167 0 0 1-10.43 13.395C525.523 422.118 512.692 439.005 500 456l-1-4h2l.813-2.875C503 446 503 446 506 444l1-3 3-2c.724-2.06.724-2.06 1-4h2l2-4h2v-2h2l.813-3.438L521 422l3-1v-3l1.875-.125L528 417c1.305-2.996 1.305-2.996 2-6h2l2-4h2l1-5h2l.313-2.25c.736-2.947 1.635-4.534 3.687-6.75h2l.813-1.734c1.228-2.345 2.612-4.39 4.187-6.516l1.563-2.14L553 381h2l.277-1.742c.898-2.804 2.276-4.248 4.286-6.383 2.697-2.53 2.697-2.53 3.437-5.875h2v-3l-2.091.214c-11.922 1.041-23.847.937-35.805.916-3.727-.005-7.455 0-11.182.007q-3.606 0-7.211-.004l-3.325.006c-6.294-.019-12.46-.336-18.72-1.023-2.746-.12-4.99.315-7.666.884q-3.005-.474-6-1c-1.96.084-3.917.235-5.867.441-5.04.448-10.022.634-15.078.586l-2.031-.017q-4.134-.04-8.267-.106c-2.047-.03-4.093-.048-6.14-.064l-3.637-.051c-3.165-.023-3.165-.023-5.98 2.211h-3c-.774 3.759-1.438 7.526-2.062 11.312l-.536 3.239L420 384h-1c-.86-15.036-.86-15.036 2.25-18.813 4.382-3.485 7.069-4.437 12.698-4.428"/><path fill="#33BAC9" d="M836 1c40.796-2.985 84.432 18.38 115 44l1.813 1.505c32.932 27.413 57.11 64.935 66.555 106.972a427 427 0 0 0 1.388 5.869c2.104 9.049 2.623 17.412 2.244 26.654h-1l-.367-2.992-.508-3.883-.492-3.867c-.332-3.33-.332-3.33-2.633-5.258a100 100 0 0 1 0-5l-1-1c-.187-1.663-.324-3.33-.437-5-.271-8.546-.271-8.546-3.563-16-.04-2-.043-4 0-6h-2l-1 2-.332-1.652c-1.034-4.92-2.346-9.586-4.082-14.305C1005 121 1005 121 1005 117h-2v-3h-2l-.55-1.645-.763-2.168-.738-2.144c-.826-2.095-.826-2.095-2.437-3.496-1.94-1.985-2.498-3.868-3.387-6.484-1.656-4.42-3.349-6.206-7.125-9.063l-.5-3.125L985 83a156 156 0 0 0-5-2 134 134 0 0 1-3-6 283 283 0 0 0-5-5l-2-3.187c-2.168-3.049-3.458-3.83-7-4.813v-2c-3.845-4.326-8.346-7.594-13-11-1.707-1.28-3.394-2.595-5-4v-2h-4l-1-3a103 103 0 0 0-6.562-4.062A122 122 0 0 1 927 32v-2l-1.715-.367-2.222-.508-2.215-.492C919 28 919 28 918 26c-3.584-1.72-7.034-3.055-10.875-4.062-1.031-.31-2.062-.62-3.125-.938l-1-2c-3.73-1.903-6.9-3.114-11.062-3.562-3.608-.401-6.555-1.17-9.938-2.438v-2l-2.336-.402-3.039-.536-3.023-.527C871 9 871 9 869 8c-1.688.006-3.376.054-5.062.125-4.704.049-8.176-.65-12.528-2.332-3.907-1.285-7.937-1.726-12.004-2.266L837 3z"/><path fill="#49AEC0" d="m399.604 278.76 3.922-.006c3.549-.004 7.097.004 10.645.014 3.843.009 7.686.006 11.53.004q9.965-.001 19.93.017c9.606.016 19.212.021 28.817.024q23.382.007 46.763.036a69445 69445 0 0 0 62.295.05q58.248.032 116.494.101v2l-2.008.003a129927 129927 0 0 0-132.025.26l-2.847.006q-22.809.051-45.617.081-23.408.033-46.817.099-14.44.04-28.882.05-9.906.01-19.812.047c-3.81.014-7.618.023-11.427.019-4.135-.004-8.269.015-12.404.036l-3.626-.014c-13.074.11-24.123 3.81-33.535 13.163a275 275 0 0 0-3 3.25l-2 2-2-3h2l.625-2.2c1.746-3.556 4.222-5.378 7.375-7.613l1.656-1.232C369.71 283 369.71 283 372 283v-2c9.267-1.538 18.217-2.287 27.604-2.24"/><path fill="#5094C3" d="M559 604h47c.092 6.87.172 13.736.22 20.605q.03 3.504.082 7.007c.048 3.361.071 6.722.089 10.083l.062 3.154c.002 5.84-.181 9.762-4.453 14.151-7.163 4.64-13.472 4.548-21.852 4.454q-2.085-.001-4.17.002c-3.754.001-7.508-.022-11.261-.05-3.93-.026-7.861-.028-11.791-.033a5964 5964 0 0 1-22.301-.085c-8.467-.045-16.934-.067-25.4-.087-17.409-.041-34.817-.112-52.225-.201l1-2 1.988.032c2.962.041 5.924.067 8.887.093 1.033.017 2.065.034 3.129.05l2.988.02 2.761.032c2.45-.008 2.45-.008 4.247-2.227 2.06-.247 2.06-.247 4.63-.243l2.914-.01 3.16.023h3.243q3.405.006 6.81.024c3.465.018 6.93.02 10.395.02q3.308.007 6.614.018l3.135.003c4.83.032 9.339.273 14.099 1.165 2.226.05 2.226.05 4.371-.121l2.455-.147 2.611-.17c13.719-.766 27.689-1.411 41.375.063 5.338.572 10.027-.243 15.188-1.625l-.187-3.312C599 651 599 651 600.48 649.563c2.036-2.094 1.941-3.368 2.032-6.254l.107-2.87.068-3.001.104-2.827c.3-9.2.238-18.407.209-27.611l-3.716.048c-4.545.054-9.09.088-13.636.117q-2.952.022-5.905.061c-2.827.037-5.654.054-8.481.067-.882.015-1.763.03-2.671.047h-2.487l-2.187.02C562 607 562 607 559 604"/><path fill="#348EA9" d="M699 281h1l.076 2.659q.144 4.914.296 9.829.065 2.121.125 4.242.089 3.06.187 6.122l.11 3.713c.193 3.217.667 6.262 1.206 9.435.206 3.811.185 7.621.188 11.438l.037 3.064c.019 9.657-1.392 16.57-8.416 23.732a362 362 0 0 1-4.786 4.618c-1.906 2.024-2.95 3.612-4.023 6.148-2.293 5.16-5.267 8.853-9 13a782 782 0 0 0-3.25 3.75c-.48.552-.96 1.103-1.453 1.672-1.926 2.343-3.228 4.028-3.61 7.078-.687 2.5-.687 2.5-3.062 4.125L662 397c-1.815 1.396-1.815 1.396-3 3v3l-4 1v4h-2v2l-4 4c-4.185 4.515-4.185 4.515-6 10l-1.816.734c-2.611 1.514-3.551 2.958-5.121 5.516-1.773 2.79-3.529 5.433-5.688 7.938-2.402 2.722-2.402 2.722-4.187 5.625-2.498 3.64-5.356 6.737-8.383 9.94-1.887 2.35-2.71 4.465-3.805 7.247-1.473 1.625-1.473 1.625-3.062 3-2.774 2.593-3.311 4.238-3.938 8q-1.988 1.026-4 2l-.937 2.5C601 479 601 479 598.375 480.313L596 481c-.261-2.928-.282-4.547 1.293-7.078l1.894-2.172 2.208-2.621 1.248-1.48c2.672-3.247 5.19-6.613 7.732-9.961l3.387-4.442 1.661-2.18c3.054-4.001 6.127-7.988 9.198-11.976q2.366-3.072 4.727-6.149A3550 3550 0 0 1 644 414a3021 3021 0 0 0 20.68-26.836c7.659-10.07 15.353-20.111 23.136-30.086l1.464-1.927C691 353 691 353 692.81 351.148c6.18-6.702 6.191-13.039 6.092-21.808q.014-2.1.038-4.199c.032-3.655.022-7.308.004-10.963-.011-3.741.017-7.482.042-11.223.043-7.319.043-14.636.014-21.955m-11 80 3 3-3 1-1-3z"/><path fill="#4596C2" d="M641.438 505.063c4.026 1.059 5.096 1.649 7.562 4.937a258 258 0 0 1 2.313 4.25c3.198 5.984 7.541 10.604 12.312 15.375 1.833 1.833 3.355 3.595 4.938 5.625 2.077 2.897 2.077 2.897 4.562 3.188L675 539q1.575 3.468 3 7l3 2c.688 2.625.688 2.625 1 5h2c3.521 2.494 4.013 5.976 5 10-5.423-4.097-9.416-8.901-13.522-14.261-3.569-4.64-7.306-9.09-11.165-13.489A417 417 0 0 1 650 518a4253 4253 0 0 0-4.5-5.625L642 508c-3.174 1.372-4.976 2.842-7.137 5.527l-1.735 2.134-1.816 2.277-1.894 2.337c-1.812 2.237-3.615 4.48-5.418 6.725q-2.309 2.847-4.625 5.688l-2.11 2.585c-3.173 3.82-6.43 7.564-9.68 11.319-3.528 4.107-6.9 8.311-10.21 12.596-4.138 5.353-8.51 10.344-13.113 15.308-2.618 2.898-4.98 5.929-7.336 9.04-2.925 3.743-6.018 7.34-9.107 10.948-1.925 2.253-3.8 4.49-5.522 6.903L561 603h-2c.628-2.929 1.586-5.361 3-8h2l.875-2.375C566 590 566 590 568 588v-4l2.375-.25c2.722-.447 2.722-.447 3.625-2.5l1-2.25a283 283 0 0 1 5-5l2-3h2l.254-2.262c.902-3.312 2.069-4.38 4.683-6.55l2.153-1.833C593 559 593 559 595 559l.254-2.168c.91-3.458 2.425-5.388 4.683-8.144l2.153-2.676L604 544h2l1-6h3c1.695-1.995 1.695-1.995 3.188-4.5l1.605-2.531L616 529l3 1v-3h2l.75-2.168c1.389-3.146 3.095-5.47 5.25-8.144l2.125-2.676L631 512h2l.813-1.812c2.165-3.99 2.833-5.213 7.625-5.125"/><path fill="#3697B2" d="M354 299h2c-1.468 4.649-3.24 9.13-5.098 13.633-1.38 3.622-2.026 6.805-2.06 10.682l-.03 2.592-.017 2.819-.03 2.987q-.047 4.886-.081 9.771l-.063 6.777q-.082 8.917-.153 17.833-.092 10.7-.19 21.399c-.098 10.835-.187 21.671-.278 32.507l-45 1c7.417 9.075 7.417 9.075 15 18 13.257 15.386 13.257 15.386 17 21l-2 1-2-1v-2h-2v-2h-2c-1.402-1.645-1.402-1.645-2.937-3.812-1.487-2.087-2.868-4-4.711-5.782-1.87-1.945-1.998-3.786-2.352-6.406h-6l-.687-3.187c-1.13-4.01-3.261-5.985-6.313-8.813-2.601-3.588-3.138-5.63-3-10l3.301-.076q6.089-.143 12.178-.296 2.63-.065 5.26-.125 3.79-.088 7.581-.187l2.359-.05c4.197-.113 8.186-.458 12.321-1.266q.252-3.875.5-7.75l.145-2.21c.354-5.567.352-11.095.323-16.67q-.048-10.084-.072-20.17-.014-6.093-.047-12.185-.032-5.91-.039-11.821-.004-2.24-.021-4.48c-.057-8.111.144-15.824 2.211-23.714.235-.951.47-1.903.71-2.883 1.596-5.386 3.631-10.166 6.29-15.117"/><path fill="#306696" d="M325 744h299l-1 2-1.675-.007q-8.638-.032-17.276-.048-3.223-.008-6.446-.02c-3.09-.013-6.18-.018-9.271-.023l-2.905-.015h-2.729l-2.388-.007c-2.377.06-2.377.06-4.916.69C573 747 573 747 570 746h-3l-4.164-.016q-6.948-.026-13.897-.039-3.005-.008-6.009-.02a3258 3258 0 0 0-8.653-.023l-2.724-.015h-2.518l-2.22-.007c-1.916.01-1.916.01-3.815 1.12v-2l-1.667.496c-2.627.568-4.97.6-7.657.567l-3.12-.024-6.429-.078c-4.831-.036-9.535.009-14.334.601L486 747l-1-1c-3.056-.101-6.088-.14-9.145-.133l-2.791-.003q-2.933 0-5.864.006c-2.99.005-5.978 0-8.968-.007q-2.844 0-5.689.004l-2.712-.006-2.537.01-2.225.002c-2.086.054-2.086.054-4.087.698-2.354.51-3.685.078-5.982-.571a69 69 0 0 0-4.262-.114h-2.518l-2.693.016-2.786.005c-2.934.005-5.869.018-8.803.03q-2.97.008-5.94.014-6.535.015-13.07.042c-65.484.229-65.484.229-69.928-1.993"/><path fill="#C8F9FB" d="m397.883 280.76 3.906-.006c3.562-.004 7.124.004 10.686.014 3.847.009 7.694.006 11.542.004q9.99-.001 19.98.017c9.63.016 19.26.021 28.889.024q23.436.007 46.873.036a70005 70005 0 0 0 62.445.05c38.932.021 77.864.058 116.796.101v63h-1l-1-61a349951 349951 0 0 0-125.796-.056q-20.944-.007-41.89-.021-21.525-.014-43.05-.017-13.26-.002-26.519-.014-9.118-.007-18.237-.006-5.244.002-10.488-.005c-12.393-.017-24.77-.001-37.151.564l-2.622.117c-3.282.173-6.113.393-9.247 1.438-2.333.04-4.667.044-7 0 5.568-5.568 15.61-4.276 22.883-4.24"/><path fill="#4396BE" d="m475 484 2 1-1.047 1.335c-6.975 8.902-13.877 17.851-20.64 26.915a939 939 0 0 1-21.235 27.379 784 784 0 0 0-18.203 23.523c-3.813 5.117-7.711 10.166-11.613 15.214-2.3 2.979-4.593 5.963-6.887 8.947l-2.54 3.3c-.605.788-1.21 1.576-1.835 2.387l-3-1-1 2-1-3h3l1-4h2v-4c1.426-1.527 1.426-1.527 3.313-2.937 3.044-2.413 4.78-4.65 6.687-8.063h2l1-3h2v-8l3.375-.625L416 560c1.209-2.791 1.209-2.791 2-6 1.5-2.256 3.116-4.021 5-6h2l.75-1.687C427 544 427 544 429.063 541.438c2.1-2.358 2.1-2.358 2.937-5.438h2v-3h3l1-3h3l.813-3.312c1.552-4.822 1.552-4.822 4.187-6.688h2l2-6h2v-2l3-2q.544-1.99 1-4l2-1 1-3h2l.688-2.187c1.575-3.377 3.52-5.37 6.312-7.813h2v-3c2.5-2.687 2.5-2.687 5-5"/><path fill="#D4FCFD" d="m113 20-3.375 1.8C70.905 42.72 39.405 73.16 20 113h-1c-.454-5.744.756-9.238 3.875-13.937l1.105-1.784c.94-1.47 1.974-2.882 3.02-4.279h2l.438-1.875C30 89 30 89 31 87h2l1-5 3-1c.672-1.936.672-1.936 1-4l1-2h2l.188-1.875L42 71l5-2c.652-2.025.652-2.025 1-4l3-1q.53-1.992 1-4c1.375-1.75 1.375-1.75 3-3h3v-3h3l1-3h3l1-4h3l2-5h3v-2h3l1-3h3v-2c3.019-2.767 6.612-4.335 10.293-6.035 1.885-.856 1.885-.856 2.707-2.965 2.322-.407 4.657-.744 7-1v-2a205 205 0 0 1 3.75-2.062l2.11-1.16c2.534-.921 3.612-.521 6.14.222"/><path fill="#4282AC" d="M559 604h47c.092 6.87.172 13.736.22 20.605q.03 3.504.082 7.007c.048 3.361.071 6.722.089 10.083l.062 3.154c.002 6.055-.393 9.553-4.453 14.151-2.5 1.938-2.5 1.938-5 3-2.312-.312-2.312-.312-4-1l6-2-.187-3.812c-.106-2.145-.106-2.145.187-4.188l1.486-1.334c1.981-2.18 1.934-3.442 2.026-6.357l.107-2.87.068-3.001.104-2.827c.3-9.2.238-18.407.209-27.611l-3.716.048c-4.545.054-9.09.088-13.636.117q-2.952.022-5.905.061c-2.827.037-5.654.054-8.481.067-.882.015-1.763.03-2.671.047h-2.487l-2.187.02C562 607 562 607 559 604"/><path fill="#4F86AB" d="M689 563h3c1.43 1.863 1.43 1.863 2.875 4.313 2.324 3.706 4.15 5.699 8.125 7.687v2h2v4l4 2v2h2v4h2v2l1.75.688c4.35 2.537 6.896 6.958 9.25 11.312v2c-4.077 1.95-7.317 2.216-11.812 2.125l-3.52-.055L706 607v-1l-29-1 .016 9.3q.023 15.195.036 30.39.007 9.214.023 18.43.016 8.888.02 17.778.003 3.394.01 6.79.01 4.747.009 9.495l.01 2.846-.004 2.618.003 2.268c-.126 2.14-.537 4.027-1.123 6.085h-2l.212-1.835c.66-6.085.953-12.087.993-18.205l.03-2.87q.047-4.643.081-9.285l.063-6.482q.082-8.487.153-16.975c.06-6.804.126-13.609.19-20.413.098-10.311.187-20.623.278-30.935h46v-2h-2c-1.354-1.487-2.631-3.044-3.875-4.625A455 455 0 0 0 705 584c-3.76-4.37-7.503-8.753-11.187-13.187l-2.168-2.606C690 566 690 566 689 563"/><path fill="#24768A" d="m431.67 361.88 3.654-.004 4.03.01h4.227q5.749.001 11.498.013 6.004.007 12.007.008 11.374.005 22.748.021 12.946.015 25.893.022 26.636.016 53.273.05v1l-3.193.031q-14.898.146-29.796.308-7.659.084-15.318.158-7.392.072-14.783.156-2.82.03-5.64.056-3.95.037-7.9.086l-2.354.017c-3.805.052-7.3.4-11.016 1.188q-3.005-.474-6-1c-1.96.084-3.917.235-5.867.441-5.04.448-10.022.634-15.078.586l-2.031-.017a1401 1401 0 0 1-8.267-.106c-2.047-.03-4.093-.048-6.14-.064l-3.637-.051c-3.165-.023-3.165-.023-5.98 2.211h-3c-.774 3.759-1.438 7.526-2.062 11.313l-.536 3.238L420 384h-1c-.861-15.041-.861-15.041 2.375-18.875 3.768-3.05 5.511-3.25 10.294-3.245"/><path fill="#4799B2" d="M423 367h2c.117 4.203-.278 7.389-2 11.23-1.12 3.1-1.409 5.799-1.625 9.082l-.227 3.239L421 393h2c.093 5.092-.137 9.967-.781 15.02-.274 2.145-.274 2.145-.219 4.98v3l2-2 1.47 1.962c3.5 2.82 6.704 2.64 11.014 2.647l2.472.05c2.598.049 5.196.07 7.794.091q2.646.042 5.293.09c4.319.074 8.638.123 12.957.16v1h-47v-49h1l1 5z"/><path fill="#C9EEF4" d="M354 303h1c.445 8.76.445 8.76-3 13h-2v104h-2q-.141-19.442-.207-38.885c-.021-6.02-.05-12.038-.095-18.058q-.063-8.724-.078-17.448-.01-3.318-.043-6.635c-.126-13.365.253-23.898 6.423-35.974"/><path fill="#3A87A5" d="M332 460c3.245.57 4.722 1.385 6.848 3.887l1.566 1.822 1.649 1.978c.572.675 1.145 1.349 1.736 2.043 4.156 4.926 8.157 9.965 12.101 15.061 3.765 4.846 7.713 9.512 11.743 14.14 2.391 2.75 4.736 5.516 6.974 8.393l2.383 3.051c1.02 1.342 1.02 1.342 2.063 2.71 1.957 2.384 1.957 2.384 5.937 1.915a79 79 0 0 0 5.75-6.5l1.535-1.879A524 524 0 0 0 396 502l1 3-1.312 1.188c-1.793 1.79-1.793 1.79-3.063 4.187-2.407 3.889-4.905 6.851-9.125 8.75-2.5-.125-2.5-.125-5.25-2.375C376 514 376 514 375 511h-2a110 110 0 0 1-3.875-5.75c-2.457-3.867-4.889-7.028-8.125-10.25v-2l-3 1-1-3-2-2c-2-2-2-2-3-4l-3-1c-1.395-2.328-1.395-2.328-2.812-5.25-2.555-4.92-4.824-7.453-9.188-10.75a156 156 0 0 1-3-5h-2z"/><path fill="#DCFDFE" d="M439.175 359.546q2.175.001 4.348-.002c3.923-.001 7.846.022 11.769.05 4.104.025 8.208.028 12.312.033 7.766.012 15.533.045 23.3.085 8.843.045 17.687.067 26.531.087 18.189.041 36.377.112 54.565.201v1l-2.232.004q-26.892.056-53.783.18c-8.67.04-17.34.072-26.009.087q-11.336.019-22.67.084c-4.002.022-8.002.038-12.003.037q-5.652 0-11.303.05-2.07.012-4.143.004c-9.784-.22-9.784-.22-17.857 4.554-4.15 4.614-3.476 10.333-3.512 16.207l-.054 3.274c-.054 3.444-.088 6.888-.122 10.331q-.05 3.507-.103 7.014A3367 3367 0 0 0 418 420h-1q-.075-10.998-.11-21.997-.016-3.743-.04-7.484a2502 2502 0 0 1-.045-10.753l-.032-3.385v-3.153l-.014-2.773c.4-4.078 1.573-5.792 4.48-8.677 5.287-3.244 11.958-2.297 17.936-2.232"/><path fill="#C9F9FB" d="M836 0q6.113-.075 12.225-.11 2.08-.015 4.159-.04c1.993-.025 3.986-.035 5.98-.045l3.633-.032C865 0 865 0 868 2a148 148 0 0 0 7.688 1.625l2.126.406c1.728.33 3.457.65 5.186.969l1 3 1.914.008c8.704.376 15.319 3.284 23.086 6.992v2l9 2v2l4 1v3c-3.105-1.183-6.12-2.506-9.125-3.918C888.665 9.754 862.957 1.482 836 1z"/><path fill="#3E9BB9" d="m551 384 3 1-1.115 1.484a2374 2374 0 0 0-7.674 10.27c-4.963 6.672-9.985 13.277-15.211 19.746-5.66 7.01-11.075 14.183-16.447 21.414-2.757 3.703-5.531 7.394-8.303 11.086l-3.047 4.063L500 456l-1-4h2l.813-2.875C503 446 503 446 506 444l1-3 3-2c.724-2.06.724-2.06 1-4h2l2-4h2v-2h2l.813-3.437L521 422l3-1v-3l1.875-.125L528 417c1.305-2.996 1.305-2.996 2-6h2l2-4h2l1-5h2l.313-2.25c.736-2.947 1.635-4.534 3.687-6.75h2l.75-1.687c1.466-2.713 3.28-4.949 5.25-7.313"/><path fill="#3870A2" d="M673 711c1.428 4.754.904 8.435-1 13-4.455 6.258-10.052 11.149-16.25 15.625-1.877 1.273-1.877 1.273-2.75 3.375-2.11.344-2.11.344-4.75.5-2.866.172-5 .393-7.652 1.523-3.26 1.226-5.939 1.172-9.41 1.102l-3.52-.055L625 746l-1-2 2.387-.297C640.834 741.72 654.15 738.448 664 727c3.752-5.076 6.743-10.106 9-16"/><path fill="#3D80B6" d="m326 674 1 3h-2v68l-2-1a129 129 0 0 1-1-6l-1-2h2l-2-5 1-1c.101-2.704.14-5.382.133-8.086l.003-2.463q0-2.584-.006-5.17c-.005-2.638 0-5.276.007-7.914q0-2.508-.004-5.015l.006-2.397c-.014-3.244-.106-5.855-1.139-8.955.357-2.587.783-5.075 1.313-7.625l.396-2.102c.359-1.773.818-3.526 1.291-5.273z"/><path fill="#4193C2" d="M689 563h3c1.43 1.863 1.43 1.863 2.875 4.313 2.324 3.706 4.15 5.699 8.125 7.687v2h2v4l4 2v2h2v4h2v2l1.75.688c4.35 2.537 6.896 6.958 9.25 11.312v2c-4.077 1.95-7.317 2.216-11.812 2.125l-3.52-.055L706 607v-1l3.246-.367 4.192-.508 2.142-.238c1.817-.226 3.62-.55 5.42-.887l1-2h-2c-1.354-1.487-2.631-3.044-3.875-4.625A455 455 0 0 0 705 584c-3.76-4.37-7.503-8.753-11.187-13.187l-2.168-2.606C690 566 690 566 689 563"/><path fill="#368FAF" d="m463 422 1 2c-.93 2.537-1.989 3.989-3.937 5.875C457.338 432.682 455 435.972 455 440a132 132 0 0 1-5 3c-2.151 1.749-2.151 1.749-2.25 3.813-.995 2.902-2.894 4.121-5.266 5.957-1.642 1.262-1.642 1.262-3.109 3.418-1.613 2.126-2.939 2.778-5.375 3.812q-2.005.992-4 2c4.019-5.54 8.31-10.794 12.75-15.998 3.045-3.57 6.041-7.173 9-10.815A387 387 0 0 1 463 422"/><path fill="#317EB2" d="M677 605h34v1q-2.34.547-4.687 1.063l-2.637.597c-2.9.368-4.828-.059-7.676-.66-2.761-.093-5.49-.14-8.25-.125l-2.219-.012c-3.56-.321-3.56-.321-6.531 1.137a130 130 0 0 0-.062 6.14l.025 3.909.019 2.08c.115 13.323-.152 26.569-.982 39.871h-1z"/><path fill="#D8F5F9" d="m432 455 3 1a623 623 0 0 1-14.766 18.011c-4.786 5.63-9.513 11.306-14.234 16.989l-1-3c2.2-3.829 4.658-7.103 8-10h2l.188-1.625c1.212-3.545 3.258-5.634 5.812-8.375h2l.25-1.875c.986-2.794 2.184-2.842 4.75-4.125.59-1.946.59-1.946 1-4 1.563-1.75 1.563-1.75 3-3"/><path fill="#2B839B" d="m430.542 361.978 2.85.061 3.085.082 3.152.072q4.998.116 9.996.245l6.766.158q8.305.194 16.609.404v1c-6.987.678-13.924 1.086-20.945 1.027l-2.03-.016a1429 1429 0 0 1-8.268-.107c-2.047-.03-4.093-.048-6.14-.064l-3.637-.051c-3.165-.023-3.165-.023-5.98 2.211h-3c-.774 3.759-1.438 7.526-2.063 11.313l-.535 3.238L420 384h-1c-.861-15.041-.861-15.041 2.375-18.875 3.428-2.775 4.864-3.25 9.167-3.147"/><path fill="#D0FBFC" d="M184 0v1l-1.746.18c-14.413 1.543-28.025 4.317-41.973 8.223-2.738.717-5.478 1.215-8.281 1.597 3.084-2.623 5.703-3.638 9.625-4.562 4.131-.896 4.131-.896 7.375-3.438 2.701-.65 5.326-1.18 8.063-1.625l2.401-.4C167.658-.278 175.734-.282 184 0"/><path fill="#2997BB" d="M346 399h1v20h-46v-1l3.301-.076q6.089-.143 12.178-.296 2.63-.065 5.26-.125 3.79-.088 7.581-.187l2.359-.05c4.197-.113 8.186-.458 12.321-1.266l.184-3.465.253-4.473.12-2.287c.33-5.662.33-5.662 1.443-6.775"/><path fill="#DCF8FB" d="m665 384 2 1c-7.527 10.114-15.162 20.125-23 30l-1-4h2l.75-1.625c1.557-2.957 3.284-5.672 5.25-8.375h2l.223-2.14c.997-3.668 2.77-5.716 5.215-8.61l2.433-2.922C663 385 663 385 665 384"/><path fill="#407BAD" d="M673 711c1.427 4.749.914 8.443-1 13-3.739 5.21-7.606 10.258-14 12l-3-1 3.063-1.875C665.526 727.777 669.74 719.381 673 711"/><path fill="#4C83D8" d="m141 1016 22 2 1 3 3.543-.07q2.322-.029 4.644-.055l2.33-.05c4.298-.038 7.562.18 11.483 2.175-5.377 1.711-10.815.464-16.312-.187l-3.53-.41c-8.662-1.07-16.856-2.704-25.158-5.403z"/><path fill="#4296C4" d="m616 529 3 2-1.828 1.906c-5.457 5.762-5.457 5.762-9.36 12.594-1.812 3.5-1.812 3.5-4.937 4.688L600 551c-1.233 2.457-1.233 2.457-2 5l-3 2c1.343-3.78 3.03-6.657 5.5-9.812l1.844-2.395L604 544h2l1-6h3c1.695-1.995 1.695-1.995 3.188-4.5l1.605-2.531z"/><path fill="#DDF7FB" d="m612 452 3 1-1.984 2.5c-7.161 9.052-14.125 18.24-21.016 27.5l-1-4h2l1-5h2l1-3h2v-3h2l.313-1.937L602 464l3-1 .438-1.937L606 459l4-2c.733-2.015.733-2.015 1-4z"/><path fill="#DDF6FB" d="m560 519 3 1-2.055 2.605-4.316 5.482a806 806 0 0 0-7.445 9.597l-1.339 1.755q-1.83 2.407-3.654 4.819A66 66 0 0 1 538 551l1-5h2l.313-1.75c.796-2.607 1.878-4.224 3.687-6.25h2l.313-1.937L548 534l3-1v-3h2l1-4h2l2-4h2z"/><path fill="#CAF9FC" d="M5 147h2l-.805 3.383C3.34 162.869 1.893 175.232 1 188H0q-.112-5.947-.165-11.896c-.022-2.001-.06-4.003-.099-6.004C-.329 161.407.108 154.338 5 147"/><path fill="#38BCCE" d="M4 155h1c.155 7.334-.282 14.57-.879 21.875-.369 3.031-.369 3.031.879 5.125a94 94 0 0 1-1.937 6.125l-1.153 3.32L1 194H0c.379-13.245 1.474-25.987 4-39"/><path fill="#C3F6F9" d="M1016 140c3 2 3 2 3.73 4.934l.457 3.504.481 3.496C1021 155 1021 155 1021 158h2c.842 2.925 1.118 5.507 1.098 8.547l-.01 2.558-.025 2.645-.014 2.691q-.018 3.28-.049 6.559h-1l-.262-2.797c-.976-9.062-2.672-17.662-5.061-26.462-1.072-4.002-2.001-7.553-1.677-11.741"/><path fill="#538CCD" d="M1022 845h1c.394 8.092-.791 15.58-2.375 23.5l-.672 3.57c-1.694 8.671-1.694 8.671-3.953 10.93l.184-1.864q.41-4.192.816-8.386c.095-.968.19-1.936.29-2.934.134-1.401.134-1.401.273-2.832l.253-2.602c.164-2.122.184-4.254.184-6.382l2-1c.43-2.554.43-2.554.563-5.5.34-5.404.34-5.404 1.437-6.5"/><path fill="#2D849F" d="M571 362c-2.19 4.685-5.302 8.54-8.437 12.625l-1.776 2.352-1.72 2.25-1.565 2.049C556 383 556 383 553 385v-4h2l.277-1.742c.898-2.804 2.276-4.248 4.285-6.383 2.698-2.53 2.698-2.53 3.438-5.875h4v-4c2-1 2-1 4-1"/><path fill="#4D8BD0" d="M0 835c2.902 4.354 3.2 8.892 4 14l.625 3.813c.72 6.02.452 12.135.375 18.187-5.705-10.096-4.547-24.703-5-36"/><path fill="#5887D0" d="M100 999c4.345.608 8.676 1.262 13 2v2h2v2l1.863.586 2.45.789 2.425.773C124 1008 124 1008 127 1010v2c-6.538-1.968-12.501-4.56-18.562-7.687l-2.479-1.26q-2.984-1.518-5.959-3.053z"/><path fill="#DAF6FB" d="m632 516 1 2c-.637 1.875-.637 1.875-1.687 4l-1.012 2.125C629 526 629 526 626.98 527c-2.532 1.278-2.822 2.459-3.981 5a103 103 0 0 1-3.625 4.25l-1.914 2.14L616 540l-3-1 1.617-1.73c6.234-6.785 11.855-13.907 17.383-21.27"/><path fill="#DAF9FC" d="M697 338h1c.718 4.976.07 7.405-2.922 11.48a283 283 0 0 1-3.828 4.707l-1.922 2.405c-2.953 3.663-5.961 7.116-9.328 10.408.498-3.735.875-5.812 3-9h2l.688-1.625c1.768-3.2 3.849-5.665 6.312-8.375h2v-3h2z"/><path fill="#448CAB" d="m396 502 1 3-1.312 1.188c-1.793 1.79-1.793 1.79-3.063 4.187-2.417 3.904-4.887 6.904-9.187 8.688C381 519 381 519 378.75 517.375c-1.876-2.546-2.404-4.262-2.75-7.375l2.25 2.5c2.624 2.948 2.624 2.948 6.75 2.5a79 79 0 0 0 5.75-6.5l1.535-1.879A524 524 0 0 0 396 502"/><path fill="#DDF7FB" d="m581 492 3 1-1.582 1.879c-6.484 7.801-12.482 15.9-18.418 24.121-.613-1.828-.613-1.828-1-4 1.813-2.75 1.813-2.75 4-5h2l.313-1.75c.796-2.607 1.878-4.224 3.687-6.25h2v-3h2l.313-1.812c.776-2.47 1.758-3.51 3.687-5.188"/><path fill="#4498B8" d="m497 456 1 2c-14.076 18.439-14.076 18.439-20 26l-1-3 2-2c.643-2.069.643-2.069 1-4h2l.188-1.875L483 471q2.491-1.021 5-2a109 109 0 0 0 2-4 152 152 0 0 1 3.625-4.75l1.914-2.422z"/><path fill="#D3F7FA" d="M375 285v2l-5 3c-2.27 2.153-4.42 4.392-6.578 6.656-1.44 1.482-2.928 2.917-4.422 4.344h-2v2h-2c2.41-7.229 8.447-12.745 14.938-16.562C373 285 373 285 375 285"/><path fill="#2496B9" d="m420 389 1 4h2c.093 5.092-.137 9.967-.781 15.02-.274 2.145-.274 2.145-.219 4.98v3l2-2 3 4h-7z"/><path fill="#3F84DA" d="M1016 866h2c.244 6.474-.289 12.725-2 19l-2 2a81 81 0 0 0-1.5 5c-1.278 4.778-1.278 4.778-3.5 7-.515-4.738-.013-7.3 2.375-11.437 3.695-6.752 3.998-14.023 4.625-21.563"/><path fill="#357FBA" d="M677 676h1q.074 6.857.11 13.715.015 2.328.04 4.658c.025 2.241.037 4.483.045 6.725l.032 2.078c0 4.602-.834 8.454-2.227 12.824a176 176 0 0 0-1 6l-2-1 1-10h2z"/><path fill="#2D74A2" d="M574 605h31v14h-1l-1-12-4.312.035-5.688.028-2.832.025c-5.49.02-10.737-.275-16.168-1.088z"/><path fill="#D3F3FA" d="M676 549c3.949 3.847 7.599 7.88 11.188 12.063l1.615 1.853 1.552 1.807 1.396 1.617c1.352 1.797 2.303 3.625 3.249 5.66-4.267-.474-6.246-2.883-9-6a89 89 0 0 1-2-4l-1.437-1.437c-3.26-3.26-4.978-7.295-6.563-11.563"/><path fill="#D3EAFD" d="M147 1019c7.524.829 15.043 1.693 22.563 2.563L182 1023v1h-26l-1-2c-1.888-.685-1.888-.685-4.062-1.125l-2.223-.508L147 1020z"/><path fill="#C8F5FE" d="M418 420h47l-5 6-1-4-41-1z"/><path fill="#CFFBFD" d="M1004 112h2c3 5.75 3 5.75 3 8h2c3.06 6.691 4.687 12.639 5 20-1.706-2.559-2.76-4.666-3.875-7.492l-1.047-2.637-1.078-2.746-1.078-2.723q-.999-2.522-1.992-5.046A1482 1482 0 0 0 1004 112"/><path fill="#2A76A5" d="M677 605h34v1q-2.34.547-4.687 1.063l-2.637.597c-2.9.368-4.828-.064-7.676-.66-2.78-.068-5.534-.095-8.312-.062l-2.245.013q-2.722.02-5.443.049l-2 7h-1z"/><path fill="#DCF7FB" d="M484 475c1 3 1 3 .063 5.625-2.825 4.621-6.373 8.43-10.063 12.375l-3-1 2.082-2.703 2.73-3.547 1.37-1.777A720 720 0 0 0 484 475"/><path fill="#CCFAFB" d="M986 81h3c1.973 2.484 1.973 2.484 4.063 5.75l2.097 3.234c2.653 4.348 4.126 6.864 3.84 12.016-3.39-3.912-5.945-8.14-8.535-12.598-1.418-2.423-1.418-2.423-3.149-4.586C986 83 986 83 986 81"/><path fill="#19BFD0" d="m73 47 3 1q-3.06 2.846-6.125 5.688l-1.727 1.607A243 243 0 0 1 57 65c.536-3.998 2.455-5.768 5.313-8.5l2.363-2.281L67 52l2.168-2.219C71 48 71 48 73 47"/><path fill="#2D9CC8" d="m501 448 2 1-2 3h-2v5l-1.777.684c-2.845 1.684-4.005 3.61-5.786 6.378-3.11 4.829-3.11 4.829-6.437 5.938.353-3.174 1.086-4.084 3.438-6.375 2.757-2.824 3.596-4.849 4.562-8.625h4l1-4h2z"/><path fill="#D3F2FD" d="m564 598 1 2-1 3h42v1h-46z"/><path fill="#3FBDC9" d="m156 5-1 4-2.687-.25c-4.99-.04-9.464 1.762-14.13 3.375-3.217.884-5.865 1.035-9.183.875 4.055-2.703 8.291-3.75 12.938-5.125l2.748-.84 2.654-.793 2.418-.723C152 5 152 5 156 5"/><path fill="#E0F8F9" d="M565 370h1c.4 3.4.03 4.946-1.625 8-2.596 3.279-5.02 5.52-8.375 8h-2c1.68-3.782 4.078-6.97 6.563-10.25l1.248-1.68A163 163 0 0 1 565 370"/><path fill="#2C84A8" d="m435 457 2 2c-2.628 6.45-8.797 10.637-14 15 .956-6.554 3.946-9.182 9.004-13.3 2.084-1.55 2.084-1.55 2.996-3.7"/><path fill="#2C99C7" d="M479 476c1 3 1 3-.125 5.375-2.06 2.884-4.238 5.259-6.875 7.625h-2v3h-2l-2 4-4-1 2-2h3l.688-2.062c2.644-5.92 6.629-10.522 11.312-14.938"/><path fill="#D2EDFC" d="M0 841h1c2.191 20.532 2.191 20.532 3 30l-1.437-1.5C1.24 867.885 1.24 867.885 0 868z"/><path fill="#D9F3F9" d="M594 562c.762 1.68.762 1.68 1 4-1.73 2.508-1.73 2.508-4.187 5.125l-2.418 2.633c-2.112 1.977-3.745 3.158-6.395 4.242v2l-2-1c9.41-11.522 9.41-11.522 14-17"/><path fill="#DAF4FA" d="m488 612 3 1q-2.37 3.129-4.75 6.25l-1.344 1.777c-2.457 3.217-4.953 6.185-7.906 8.973v-4h2l.188-2.187c1.067-3.697 2.92-5.344 5.812-7.813h2z"/><path fill="#D3F5F9" d="M545 396c1 3 1 3-.04 5.41l-1.585 2.652-1.54 2.66c-2.09 2.595-3.684 3.326-6.835 4.278v2h-2c1.745-4.052 4.423-7.306 7.125-10.75l1.418-1.824Q543.269 398.21 545 396"/><path fill="#D8F7FB" d="m448 522 1 3c-3.237 5.516-7.236 10.712-12 15h-2c1.73-4.004 4.394-7.279 7.063-10.687l1.392-1.8c3.366-4.334 3.366-4.334 4.545-5.513"/><path fill="#D9F7FB" d="M521 427h1c.335 3.16.376 4.529-1.645 7.063L518.187 436c-3 2.803-5.328 5.283-7.187 9l-3-1q3.212-4.255 6.438-8.5l1.853-2.457 1.768-2.324 1.634-2.158z"/><path fill="#3B7AE2" d="m864.012 1015.805 2.295.02 2.38.05 2.417.027c1.965.024 3.93.06 5.896.098-2.921 2.921-6.38 2.981-10.312 3.625l-2.303.406c-3.836.653-7.478 1.14-11.385.969 6.93-5.257 6.93-5.257 11.012-5.195"/><path fill="#2584AC" d="m607 465 2 1-2 6-2-1c.875-4.875.875-4.875 2-6m-4 6 2 1-1.437 1.813c-1.728 2.19-1.728 2.19-2.563 5.187-2.562 1.188-2.562 1.188-5 2 0-4 0-4 1.531-5.703l1.969-1.547 1.969-1.578z"/><path fill="#D2EFF9" d="M341 660h1c.375 5.118-1.176 7.355-4.266 11.262-2.32 2.326-4.536 3.129-7.734 3.738l1.137-1.504c2.61-3.465 5.189-6.94 7.676-10.496z"/><path fill="#4283A8" d="M524 569c1 3 1 3-.293 5.594l-1.894 2.906-1.856 2.906c-1.823 2.417-3.444 3.945-5.957 5.594.482-4.722 2.697-7.7 5.563-11.312l1.287-1.667A529 529 0 0 1 524 569"/><path fill="#D4F4F9" d="M364 495c2.936.34 3.93.926 6 3.11l2 2.64 2 2.61 2 2.64 2.313 2.64c.556.78 1.113 1.558 1.687 2.36l-1 3q-2.63-3.057-5.25-6.125l-1.488-1.727A99.6 99.6 0 0 1 364 495"/><path fill="#DAF7FA" d="M640 415h3c-1.68 3.782-4.078 6.97-6.562 10.25l-1.249 1.68A163 163 0 0 1 632 431h-1v-5h2v-2h2l1-5 3-1z"/><path fill="#C0F7F9" d="M946 41c4.965 1.168 8.238 2.352 12 6v2h3l1 5c-3.916-2.22-7.337-4.768-10.812-7.625l-2.958-2.414L946 42z"/><path fill="#1AC0D0" d="m152 9-3 .988c-8.362 2.74-8.362 2.74-16.625 5.762-2.823 1.046-5.41 1.787-8.375 2.25v-2c3.91-1.371 7.83-2.719 11.75-4.062l3.367-1.182 3.242-1.104 2.984-1.031c2.712-.634 4.076-.566 6.657.379"/><path fill="#5284CA" d="m69 977 8 1v4c2.332 1.206 4.496 2.165 7 3v3h2v2c-3.754-1.672-6.926-4.037-10.187-6.5l-1.655-1.223c-4.034-3.03-4.034-3.03-5.158-5.277"/><path fill="#D3EDFC" d="M1023 843h1c.116 3.729.187 7.457.25 11.188l.102 3.197c.1 7.89.1 7.89-2.368 11.853L1020 871l.402-3.078c1.07-8.297 1.997-16.576 2.598-24.922"/><path fill="#DDFAFD" d="m451 432 3 1q-2.681 3.473-5.375 6.938l-1.54 1.998-1.483 1.904-1.365 1.761C443 447 443 447 441 448v-3h2v-4h2l.75-2.25c1.341-2.951 2.86-4.598 5.25-6.75"/><path fill="#DFF2FD" d="M872 1021c-3.002 2.613-4.796 3.37-8.766 3.293l-2.695-.03-2.789-.075-2.836-.042q-3.458-.053-6.914-.146v-1c3.248-.534 6.499-1.05 9.75-1.562l2.79-.46 2.694-.42 2.476-.396c2.351-.166 4.054.135 6.29.838"/><path fill="#397AE5" d="m158.258 1015.805 3.867.07 3.883.055 2.992.07v5h-5l-1-2c-2.356-.468-2.356-.468-5.062-.625l-2.786-.227L153 1018c2-2 2-2 5.258-2.195"/><path fill="#4982CF" d="M29 925h2l.625 3.313c1.032 3.916 1.032 3.916 4.5 5.625L39 935l-2 4c-3.099-.921-4.728-1.672-6.812-4.187-1.448-3.43-1.405-6.127-1.188-9.813"/><path fill="#E3FAFD" d="M416 474c.644 1.798.644 1.798 1 4a71 71 0 0 1-5.437 6.75l-1.604 1.824A480 480 0 0 1 406 491l-1-3c2.2-3.829 4.658-7.103 8-10h2z"/><path fill="#3986A2" d="M332 460c3.267.566 4.709 1.38 6.797 3.941l1.465 1.768 1.488 1.853 1.535 1.866A652 652 0 0 1 347 474l-2 2-1.687-2.187c-2.795-3.4-5.84-6.446-9.063-9.438C333 463 333 463 332 460"/><path fill="#19C1D0" d="M869 7c9.252 1.135 17.354 3.649 26 7v1c-4.824.193-8.496-.243-13-2v-2l-2.336-.367-3.039-.508-3.023-.492C871 9 871 9 869 7"/><path fill="#4A95C3" d="m567 591 3 1a993 993 0 0 1-4.375 5.5l-2.46 3.094L561 603h-2c.628-2.929 1.586-5.361 3-8h2l1-3z"/><path fill="#4AA1BD" d="m463 422 1 2c-1.267 3.455-3.438 5.438-6 8l-.875 2.125c-1.706 2.844-4.032 3.068-7.125 3.875 4.061-5.594 8.38-10.86 13-16"/><path fill="#DBF5FA" d="m399 495 3 1a7232 7232 0 0 1-5.812 6.813l-1.659 1.947-1.611 1.885-1.476 1.73c-1.425 1.605-2.908 3.123-4.442 4.625.645-3.483 1.982-6.094 4-9h2v-2h2v-2h2z"/><path fill="#48A4C2" d="M301 419h16v1l-14 1 5 7-1 2h-2c-4-6.5-4-6.5-4-11"/><path fill="#C5FAFC" d="M113 20q-4.437 2.47-8.875 4.938l-2.55 1.42-2.442 1.357-2.254 1.254Q94.96 30.02 93 31l1-5 7-1v-2a205 205 0 0 1 3.75-2.062l2.11-1.16c2.534-.921 3.612-.521 6.14.222"/><path fill="#3793C8" d="m398 581 1 3-2 2-1.5 3.563C394 593 394 593 392 594l-2-1-1 2-1-3h3l1-4h2v-4c2-1.75 2-1.75 4-3"/><path fill="#DCFAFC" d="m385.98 281.902 3.526.01 3.682.026 3.716.013q4.548.018 9.096.049v1l-1.88.076c-2.811.116-5.622.239-8.433.361l-2.958.12-2.842.127-2.619.11c-2.433.133-2.433.133-5.268 1.206-2.333.04-4.667.044-7 0 3.359-3.359 6.451-3.12 10.98-3.098"/><path fill="#C4F8FA" d="M13 122h2l-.516 1.695C12.244 131.108 10.114 138.551 8 146H7c-.57-6.965.657-11.296 3.809-17.52 1.05-2.187 1.711-4.113 2.191-6.48"/><path fill="#CAFAFB" d="M132 12q-3.9 1.798-7.812 3.563L121.95 16.6l-2.158.966-1.984.905C116 19 116 19 113 18c2.282-2.618 4.194-3.622 7.5-4.625l2.344-.727L125 12c3.133-1.044 3.99-.934 7 0"/><path fill="#5385CD" d="m982 947 2 1a1064 1064 0 0 1-3.812 4.875l-2.145 2.742C976 958 976 958 973 960c.617-5.399 3.079-8.453 7.25-11.812z"/><path fill="#3284C1" d="M603 634h1q.04 4.438.063 8.875l.025 2.55.01 2.442.016 2.254C604 652 604 652 603 654h-2v3h-2c-.187-2.812-.187-2.812 0-6l1.469-1.25c2.384-2.724 2.056-5.395 2.218-8.937l.2-3.856z"/><path fill="#DCF5FA" d="M531 557h2c-1.68 3.801-4.115 6.97-6.625 10.25l-1.273 1.68A1462 1462 0 0 1 522 573l-1-4h2l.313-1.812c.785-2.5 1.656-3.563 3.687-5.188h2l.438-1.937C530 558 530 558 531 557"/><path fill="#388CA9" d="m636 424 2 4c-3.625 5.875-3.625 5.875-7 7l-2-2z"/><path fill="#CFFDFE" d="M1021 158h2c.842 2.925 1.118 5.507 1.098 8.547l-.01 2.558-.025 2.645-.014 2.691q-.018 3.28-.049 6.559h-1q-.508-3.78-1-7.562c-.095-.705-.19-1.41-.29-2.135A88 88 0 0 1 1021 158"/><path fill="#4C8EB9" d="m370 620 2 1q-2.37 3.129-4.75 6.25l-1.344 1.777c-2.457 3.217-4.953 6.185-7.906 8.973 1.875-4.75 1.875-4.75 3-7h2l.313-2.312c.734-2.872 1.359-3.918 3.687-5.688h2z"/><path fill="#2D94CC" d="m616 529 3 2-4.375 4.875-2.46 2.742A126 126 0 0 1 608 543l-1-5h3c1.695-1.995 1.695-1.995 3.188-4.5l1.605-2.531z"/><path fill="#E0F7FD" d="m671 711 2 1c-1.488 5.803-4.591 10.176-8 15-1-3-1-3 .18-5.375l1.695-2.625c1.743-2.725 3.099-4.922 4.125-8"/><path fill="#E3F9FC" d="M464 501c1 2 1 2 .438 4.25-1.856 3.549-4.294 6.264-7.438 8.75h-2c1.49-3.283 3.386-5.93 5.625-8.75l1.914-2.422z"/><path fill="#DCF9FC" d="m678 367 2 1-12 16-1-4 1.938-.75c2.25-1.066 2.25-1.066 2.812-3.375L672 374h2l.875-2.375C676 369 676 369 678 367"/><path fill="#C7F7F8" d="M62 51h3c-1.403 3.187-3.078 5.322-5.562 7.75l-1.88 1.86C56 62 56 62 55 62v-5h3v-3h3z"/><path fill="#3690AC" d="m559 373 2 4-7 8-2-1 1-3h2l.313-1.75c.785-2.57 1.992-4.187 3.687-6.25"/><path fill="#C9F4F8" d="M354 303h1c.447 8.787.447 8.787-3 13l-3 1a949 949 0 0 1 1.375-4.75l.773-2.672c.773-2.339 1.688-4.412 2.852-6.578"/><path fill="#5A87CC" d="M141 1016c7.193.462 14.003 1.25 21 3l-2 2c-6.57-.358-12.707-2.16-19-4z"/><path fill="#4A82AE" d="M673 711c1.06 4.24.863 6.763 0 11l-2 2h-3v2l-2-1z"/><path fill="#DBF4FA" d="m376 615 1 3c-2.432 4.303-5.419 7.618-9 11l-2-1z"/><path fill="#4982A9" d="m480 626 1 3c-1.588 3.177-3.393 5.61-6 8l-1.687 1.688L472 640l-2-1z"/><path fill="#D2F5FC" d="M640 507c2.622 1.049 3.794 1.65 5.25 4.125L646 513l-2.875-.625L640 512l-2 2-3-1z"/><path fill="#3CB7C6" d="M1002 109c2.442 3.03 4.13 6.09 5.75 9.625l1.36 2.914.89 2.461-1 2-2-5h-2v-4h-2z"/><path fill="#4589A6" d="M585 490c1 3 1 3 .25 5-1.26 2.015-2.508 3.392-4.25 5l-2.187 2.188L577 504l-2-1z"/><path fill="#D8FFFF" d="M962 54c3.392.593 5.21 1.767 7.75 4.063l1.86 1.66L973 61l-1 4q-2.504-2.466-5-4.937l-2.812-2.778C962 55 962 55 962 54"/><path fill="#15C1D0" d="M842 3q2.625-.079 5.25-.125l2.953-.07c2.88.2 4.303.846 6.797 2.195 2.664.515 5.295.73 8 1-2.545 1.664-3.8 2.017-6.875 1.75C855 7 855 7 852.063 6 848.715 4.907 845.49 4.419 842 4z"/><path fill="#3C9FCD" d="M638 505c6.4.492 6.4.492 9.438 3.063L649 510l-1 3c-3.161-1.37-3.993-1.99-6-5-2.06-.724-2.06-.724-4-1z"/><path fill="#DAF6FA" d="m628 431 3 1-8 11c-1-4-1-4 0-7h2l.938-1.937C627 432 627 432 628 431"/><path fill="#DAF4FB" d="M359 637c1 2 1 2 .438 4.25-1.924 3.68-4.407 5.917-7.438 8.75l-2-1z"/><path fill="#DCF5FA" d="m508 586 3 1-8 11-1-3 1-2h2l-1-3z"/><path fill="#4C93B9" d="m618 531 2 1q-2.682 3.224-5.375 6.438l-1.54 1.853c-3.858 4.596-3.858 4.596-6.085 5.709 1.417-4.32 3.538-7.005 6.625-10.312l2.477-2.676z"/><path fill="#2C89A4" d="M689 356h2c-1.652 3.579-3.783 6.748-6 10-.812-1.625-.812-1.625-1-4 2.313-3.25 2.313-3.25 5-6m-1 5 3 3-3 1-1-3z"/><path fill="#CBF9FB" d="M934 32c5.023 1.182 8.095 2.45 12 6l-1 3a1772 1772 0 0 1-5.5-3.937l-3.094-2.215L934 33z"/><path fill="#317EB0" d="m511 589 3 1-2.125 2c-3.37 3.35-6.1 7.157-8.875 11-1-2-1-2-.375-4.312 1.65-3.225 3.727-5.239 6.375-7.688z"/><path fill="#D5F3F9" d="m419 559 1 3c-1.948 3.34-3.984 6.533-7 9h-2c1.41-3.039 3.089-5.594 5.125-8.25l1.633-2.14z"/><path fill="#488BAB" d="m568 512 3 1c-2.101 3.982-4.37 6.35-8 9l-2-1z"/><path fill="#4090AA" d="M653 402c1 3 1 3-.187 6-1.73 2.862-3.013 4.262-5.813 6l-1-3c1.434-2.262 1.434-2.262 3.438-4.687l1.996-2.45z"/><path fill="#1D85A4" d="M423 367h2c.14 5.048-.618 8.553-3 13h-1c-.167-4.921-.248-8.503 2-13"/><path fill="#4182DC" d="m16 902 1 2h2l1 6h3v7c-3.508-4.21-7-9.426-7-15"/><path fill="#D8EEFB" d="M1014 890h1c.533 6.259-1.182 10.451-4 16h-2c1.59-5.361 3.19-10.708 5-16"/><path fill="#3899CF" d="M670 538c2.313.063 2.313.063 5 1 1.625 3.438 1.625 3.438 3 7l3 2-1 3-1.426-1.645-1.886-2.168-1.864-2.144c-1.757-2.025-1.757-2.025-3.554-3.68C670 540 670 540 670 538"/><path fill="#3A99B8" d="M307 428h2c2.602 3.497 4.55 6.892 6 11l-4 1-.875-3.375c-.817-3.628-.817-3.628-3.125-5.625z"/><path fill="#CDFBFC" d="M978 71h4v3h2c1.063 1.813 1.063 1.813 2 4l-1 3q-1.754-2.216-3.5-4.437l-1.969-2.497C978 72 978 72 978 71"/><path fill="#D2FAFB" d="m912 18 6 1v2l4 1v3c-6.71-2.61-6.71-2.61-9-4z"/><path fill="#B3F8FB" d="M167 0c2.95-.22 5.684-.28 8.625-.187l2.43.04c1.982.036 3.963.09 5.945.147v1l-19 2z"/><path fill="#4685B1" d="m601 654 4 1c-4.308 5.846-4.308 5.846-8 7-2.25-.375-2.25-.375-4-1l6-2v-2h2z"/><path fill="#388FC9" d="M373 614c1 2 1 2 .75 4.063L373 620l-3 1-1 2h-2l-1 3-2-4h4l.813-1.75c1.204-2.283 2.595-4.224 4.187-6.25"/><path fill="#438BA7" d="M604 466h1v5l-2.375.75c-2.948 1.404-3.527 2.257-4.625 5.25l-2-1q1.964-2.505 3.938-5l2.214-2.812z"/><path fill="#1ABBCC" d="M156 5h13c-2.365 2.365-3.259 2.367-6.5 2.688l-2.406.261C158 8 158 8 156 7z"/><path fill="#D1F1F8" d="m408 573 1 3c-3.213 5.738-3.213 5.738-7 7v2l-2-1z"/><path fill="#2C7EB1" d="M528 567h3c-1.24 3.718-2.923 4.674-6 7l-2 2c.574-3.872 2.341-6.185 5-9m-6 9v3Z"/><path fill="#C3F9FB" d="M922 25c5.285.176 5.285.176 8 1 2.5 3.063 2.5 3.063 4 6-4.308-1.566-8.062-3.683-12-6z"/><path fill="#2980A9" d="m582 497 2 1c-1.336 4.008-3.769 5.375-7 8l-1 2h-2c.339-3.16.946-3.954 3.438-6.062.845-.64 1.69-1.28 2.562-1.938z"/><path fill="#D8F5FA" d="m495 461 1 4c-1.812 2.25-1.812 2.25-4 4h-2v2l-2-1z"/><path fill="#3CBBC7" d="m118 17 2 1-2.437.813L115 20l-1 3h-7c3.421-2.874 6.839-4.459 11-6"/><path fill="#3E7BDD" d="M126 1008c2 0 2 0 3.625 1.5L131 1011v-2c1.875.313 1.875.313 4 1l2 3-10-1z"/><path fill="#427CD8" d="m95 992 2 1v2l5-1v3l2 2-7-1z"/><path fill="#5686CE" d="m957.25 973.25 1.75.75c-2.578 2.648-4.916 4.944-8 7 0-4 0-4 1.75-6.312C955 973 955 973 957.25 973.25"/><path fill="#5194C2" d="M348 647h3c-1.555 3.817-4.036 6.192-7 9 1.75-6.75 1.75-6.75 4-9"/><path fill="#327DB6" d="m476 634 2 3-6 7-1-4 3-1c1.219-2.504 1.219-2.504 2-5"/><path fill="#358AC6" d="m362 628 2 1-1 2h-2c-1.075 2.652-2.095 5.284-3 8h-3c1.486-4.593 3.85-7.436 7-11"/><path fill="#2C85AC" d="m401 499 2 1a832 832 0 0 1-3.312 3.875l-1.864 2.18C396 508 396 508 393 510l2-4 .875-2.062c1.35-2.324 2.908-3.46 5.125-4.938"/><path fill="#D1F5F9" d="M310 430h4l1 4h2l1 5c-3.63-2.65-5.899-5.018-8-9"/><path fill="#3470A8" d="M325 744q2.906-.079 5.813-.125l3.269-.07C337 744 337 744 340 746c-11.375 0-11.375 0-15-2"/><path fill="#4979A5" d="m648 740-1 3c-3.562 1.188-3.562 1.188-7 2v-2l-3-1c7.625-2 7.625-2 11-2"/><path fill="#D1EEF7" d="m574 586 1 3c-1.145 1.824-1.145 1.824-2.812 3.688l-1.645 1.886C569 596 569 596 567 596c1.668-3.941 4.227-6.79 7-10"/><path fill="#D6F5FA" d="M470 493h1c.365 4.497.365 4.497-1.312 6.813C468 501 468 501 465 501c1.37-2.951 2.932-5.483 5-8"/><path fill="#CFF3F8" d="m515 435 1 3c-.996 1.824-.996 1.824-2.437 3.688l-1.434 1.886L511 445l-3-1z"/><path fill="#1ABFCF" d="M112 23c-1.391 2.782-3.302 3.552-6 5h-2l-1 2-2-2c6.143-5.714 6.143-5.714 11-5"/><path fill="#E1F3FD" d="m988 942 1 3c-1.215 1.824-1.215 1.824-2.937 3.688l-1.715 1.886L983 952l-2-1z"/><path fill="#3F85DF" d="m9 882 1.875 2.5L13 887h2l-2 5h-2z"/><path fill="#258EAE" d="m683 366 1 3c-1.434 2.043-1.434 2.043-3.437 4.188l-1.997 2.167L677 377c0-3.606.817-4.413 3-7.187l1.688-2.168z"/><path fill="#5784C9" d="m935 993-10 6-1-2h2v-2h3v-2c3.75-1.125 3.75-1.125 6 0"/><path fill="#518FBE" d="M327 673h2l1 3a95 95 0 0 1-4 5c-.709 1.311-1.395 2.638-2 4l1-8h2z"/><path fill="#3493CB" d="M601 548h2l-1 3h-2l-.812 2.375C598 556 598 556 595 558c1.367-3.987 3.152-6.885 6-10"/><path fill="#259CC4" d="m536 403 1 2a159 159 0 0 1-5 6h-2c.188-2.312.188-2.312 1-5 2.563-1.812 2.563-1.812 5-3"/><path fill="#248AAD" d="m660 402-5 2v4h-2l-1 2c.523-2.763 1.109-5.326 2-8 2.49-1.245 3.41-.777 6 0"/><path fill="#CEF1F5" d="M565 370h1c.37 4.554.37 4.554-1.5 6.813L563 378l-3-1a698 698 0 0 1 2.438-3.5l1.37-1.969z"/><path fill="#5582C6" d="M910 1007c-1.432.7-2.87 1.384-4.312 2.063l-2.426 1.16C901 1011 901 1011 898 1010c4.208-3.456 6.749-4.444 12-3"/><path fill="#5A86CB" d="m100 999 7 1v2l5 2-2 1c-2.383-.996-2.383-.996-5.125-2.437l-2.758-1.434L100 1000z"/><path fill="#3F82DD" d="m999 919 1 2a101 101 0 0 1-3 6h-2v2h-2c.375-1.937.375-1.937 1-4l2-1a113 113 0 0 0 3-5"/><path fill="#3F81D9" d="M1001 910h4l-3 9h-2z"/><path fill="#2C93CA" d="M409 562h4a85 85 0 0 1-2 7h-2z"/><path fill="#2F93C8" d="M423 548h2a56.5 56.5 0 0 1-4 7h-2l-1 3-1-2q1.426-2.008 2.875-4l1.617-2.25z"/><path fill="#E8FBFD" d="m616 539 1 2c-2.312 2.063-2.312 2.063-5 4l-3-1c2.363-2.526 3.665-3.888 7-5"/><path fill="#D6F3F9" d="m588 483 3 1-6 7-1-3 1-2h2z"/><path fill="#1AB9CC" d="m16 125 2 2c-1.204 3.426-2.359 5.533-5 8q.172-2.22.375-4.437c.07-.824.14-1.648.21-2.497L14 126z"/><path fill="#CEF9FA" d="M956 47h2v2h3l1 5c-4.8-2.462-4.8-2.462-5.812-5.187z"/><path fill="#608CCF" d="M128 1012c1.626.087 3.25.195 4.875.313l2.742.175C138 1013 138 1013 140 1016c-4.195-.6-8.01-1.575-12-3z"/><path fill="#5A8ACC" d="M47 955c1.875.313 1.875.313 4 1l2 3-1 3a141 141 0 0 1-5-5z"/><path fill="#2E75B2" d="M674 711h1c.222 1.456.427 2.915.625 4.375l.352 2.46L676 720l-2 2-1-1c.09-1.691.246-3.38.438-5.062l.308-2.786z"/><path fill="#E2F7FB" d="M341 660h1c.25 2.25.25 2.25 0 5-2 2.313-2 2.313-4 4 .498-3.735.875-5.812 3-9"/><path fill="#D7F3FA" d="m465 642 3 1-6 8-1-4h2l.438-1.937C464 643 464 643 465 642"/><path fill="#5096B1" d="m376 510 8 8-6-1z"/><path fill="#428EA8" d="m328 453 7 6-2 2-2-1v-2h-2z"/><path fill="#2A84A3" d="M640 420h2l1 4-6 2c.573-2.867.861-3.861 3-6"/><path fill="#19BDD1" d="m35 88 3 1c0 2 0 2-2.375 4.563C33 96 33 96 31 97c1.059-3.403 2.009-6.014 4-9"/><path fill="#3DB8C6" d="M989 88h2c4 6.75 4 6.75 4 9h-2c-4-5.294-4-5.294-4-9"/><path fill="#3E80DD" d="m34 933 5 2-2 4h-2l-2-5z"/><path fill="#4F93BD" d="m377 611 2 1-5 7c-1-3-1-3-.187-5.125C375 612 375 612 377 611"/><path fill="#CEF1F9" d="M663 534c5.875 4.625 5.875 4.625 7 8h-2v-2l-4-1z"/><path fill="#3A96C3" d="M664 531c4.875 4.75 4.875 4.75 6 7-2.867-.573-3.861-.861-6-3z"/><path fill="#D1F2F9" d="m632 516 1 2a101 101 0 0 1-3 6h-3c1.372-2.954 2.989-5.44 5-8"/><path fill="#CEF4F9" d="M507 445c1 2 1 2 .313 4.563C506 452 506 452 503.875 452.813L502 453c3.875-6.875 3.875-6.875 5-8"/><path fill="#3EBBC5" d="m105 23 2 1c-4.297 4.004-4.297 4.004-6 5-2.203-.348-2.203-.348-4-1a351 351 0 0 1 3.875-2.562l2.18-1.442z"/><path fill="#4380D7" d="M990 934c1.245 2.49.777 3.41 0 6h-3l-1 3-1-3c1.404-2.264 3.197-4.02 5-6"/><path fill="#CCF2F9" d="m464 501 1 2a340 340 0 0 1-2.375 3.5l-1.336 1.969L460 510h-2c1.527-3.436 3.6-6.12 6-9"/><path fill="#4890A9" d="M352 481c4.875 4.75 4.875 4.75 6 7l-1 2c-2.8-1.4-3.568-3.266-5-6z"/><path fill="#448A9B" d="M571 362c-1.443 3.366-3.333 5.51-6 8v-3h2v-4c2-1 2-1 4-1"/><path fill="#457FDF" d="M107 1001h6v2h2v2c-3.356-.6-5.378-1.846-8-4"/><path fill="#E8F9FC" d="m332 674 2 1a141 141 0 0 1-5 5h-2c1.37-3.161 1.99-3.993 5-6"/><path fill="#DEF5FB" d="m499 598 3 1-5 6-1-4h2z"/><path fill="#3292C7" d="m589 563 1 4h-3v2h-3c1.133-3.4 2.125-4.053 5-6"/><path fill="#3B91C0" d="m685 555 2 1c.73 2.314 1.401 4.648 2 7l-5-4z"/><path fill="#519EC4" d="M646 512c2.438.688 2.438.688 5 2 .813 2.625.813 2.625 1 5-4.875-4.75-4.875-4.75-6-7"/><path fill="#D8F5F9" d="m356 485 4 1v2h2l-1 4c-5-5.875-5-5.875-5-7"/><path fill="#D5F6FA" d="M343 469c3.335 1.38 5.186 2.85 7 6l-1 3a1273 1273 0 0 1-3-3.937l-1.687-2.215C343 470 343 470 343 469"/><path fill="#D0F4F9" d="M337 462h3v2h2l1 5c-4.875-4.75-4.875-4.75-6-7"/><path fill="#258CAA" d="m673 379 3 1-7 6c.602-2.02 1.273-4.021 2-6z"/><path fill="#4697AC" d="m695 348 1 2-4 6-3-1z"/><path fill="#1DBCCE" d="M29 97h2c-1.75 5.75-1.75 5.75-4 8 .875-6.875.875-6.875 2-8m-4 8 2 1-2 1z"/><path fill="#D7FDFE" d="M159 1h7l-1 2c-2.649.594-5.292.742-8 1l2-1z"/></svg>